<?xml version="1.0" standalone="no"?>
<!DOCTYPE svg PUBLIC "-//W3C//DTD SVG 20010904//EN"
 "http://www.w3.org/TR/2001/REC-SVG-20010904/DTD/svg10.dtd">
<svg version="1.0" xmlns="http://www.w3.org/2000/svg"
 width="851.000000pt" height="315.000000pt" viewBox="0 0 851.000000 315.000000"
 preserveAspectRatio="xMidYMid meet">
<metadata>
Created by potrace 1.14, written by Peter Selinger 2001-2017
</metadata>
<g transform="translate(0.000000,315.000000) scale(0.100000,-0.100000)"
fill="#000000" stroke="none">
<path d="M0 1975 l0 -1175 2583 -2 c2365 -3 2585 -4 2617 -19 19 -9 49 -21 65
-26 17 -5 29 -15 28 -21 -2 -6 14 -14 35 -17 60 -11 72 -16 72 -31 0 -8 7 -14
15 -14 8 0 15 8 15 18 0 14 2 14 9 3 10 -16 18 -12 74 38 15 14 27 21 27 17 0
-5 6 -3 14 3 11 9 12 7 9 -13 -7 -34 28 -66 70 -66 37 0 77 30 77 58 0 14 9
17 48 15 26 0 52 -2 57 -3 6 -1 15 -1 20 0 6 1 174 2 375 3 l364 2 6 -25 c6
-23 7 -22 14 13 l7 37 60 0 c39 0 66 -5 75 -14 11 -11 11 -16 1 -19 -9 -4 -9
-6 1 -6 7 -1 10 -6 7 -11 -4 -6 5 -10 19 -10 24 0 26 3 24 43 l-1 42 -4 -37
c-2 -21 -8 -38 -14 -38 -5 0 -9 17 -9 38 0 27 -3 33 -10 22 -8 -13 -10 -12
-10 3 0 9 -8 17 -17 17 -9 0 -14 2 -11 5 2 3 25 2 51 -1 44 -6 46 -8 50 -43
l4 -36 1 38 c1 20 7 37 13 37 7 0 10 -14 7 -35 -2 -19 0 -35 4 -35 4 0 8 15 8
34 0 31 3 34 33 37 30 4 166 -6 140 -9 -8 -1 -13 -18 -13 -42 0 -47 15 -53 23
-10 6 30 7 30 77 30 l70 0 1 -37 c1 -33 2 -34 8 -13 5 19 14 25 36 25 23 0 30
-6 40 -35 l12 -35 286 -3 c294 -2 302 -4 279 -40 -11 -16 -649 -23 -656 -7 -3
6 -5 4 -5 -2 -1 -9 -25 -13 -86 -13 -79 0 -107 -10 -69 -24 9 -3 67 -6 130 -6
104 0 115 -2 113 -18 -2 -9 0 -34 4 -54 l8 -38 513 0 c572 0 526 -6 526 71 0
35 3 39 25 39 24 0 25 -2 24 -62 -1 -85 -10 -112 -37 -116 -14 -2 -22 2 -22
12 0 12 -67 15 -512 18 -493 3 -514 2 -529 -16 -12 -14 -25 -17 -53 -14 -25 3
-36 0 -36 -9 0 -11 -39 -12 -202 -7 -112 3 -208 7 -215 9 -7 2 -15 0 -18 -5
-9 -15 -145 -13 -150 3 -4 9 -90 11 -394 9 -375 -2 -391 -2 -426 18 -39 22
-55 25 -55 10 0 -5 9 -10 19 -10 11 0 23 -5 26 -10 3 -6 -2 -10 -12 -10 -13 0
-14 -3 -5 -8 14 -9 13 -72 -1 -72 -5 0 -7 -8 -5 -17 4 -16 -4 -18 -68 -18 -39
0 -70 3 -67 8 2 4 19 7 36 8 18 0 41 4 52 8 16 7 14 9 -14 14 -18 4 -45 5 -59
2 -25 -5 -26 -5 -4 4 30 14 28 23 -5 19 -22 -2 -28 1 -28 17 0 15 10 22 45 29
41 9 42 10 16 14 -16 2 -24 7 -18 11 7 4 8 12 2 21 -7 11 -16 9 -51 -14 -32
-22 -49 -27 -76 -23 -24 4 -36 2 -40 -8 -3 -8 -10 -12 -16 -8 -7 4 -8 -8 -3
-37 6 -36 4 -41 -9 -36 -14 5 -15 -3 -10 -57 3 -35 2 -54 -3 -44 -7 17 -9 16
-20 -8 -7 -14 -10 -31 -7 -36 9 -13 -42 -30 -70 -23 -12 3 -36 19 -51 35 -26
27 -30 40 -36 117 -4 48 -8 92 -9 97 -1 6 -34 9 -82 6 -79 -3 -80 -3 -75 20 3
13 8 31 12 40 6 13 1 16 -26 14 -18 -1 -1164 -2 -2545 -3 l-2513 -2 0 -235 0
-235 4255 0 4255 0 0 1196 0 1197 -2557 -4 -2558 -4 -49 23 c-49 22 -57 21
-69 -12 -4 -11 -47 2 -47 15 0 6 10 7 23 4 15 -5 19 -4 12 3 -5 6 -37 15 -70
21 -33 6 -63 18 -68 26 -11 21 -37 19 -37 -2 0 -15 -2 -15 -9 -4 -10 16 -18
12 -73 -38 -16 -14 -28 -21 -28 -17 0 5 -6 3 -14 -3 -12 -10 -13 -8 -9 8 3 12
-2 32 -11 46 -31 47 -136 22 -136 -33 0 -14 -9 -17 -48 -15 -26 0 -51 2 -57 3
-5 1 -14 2 -19 1 -6 -1 -174 -3 -375 -4 l-365 -2 -6 25 c-6 23 -7 22 -13 -11
l-7 -36 -61 -2 c-41 -1 -64 3 -74 13 -11 11 -12 16 -2 19 9 4 9 6 -1 6 -7 1
-10 6 -7 11 4 6 -5 10 -19 10 -24 0 -26 -3 -24 -42 l1 -43 4 38 c2 20 8 37 14
37 5 0 9 -17 9 -37 0 -28 3 -34 10 -23 8 13 10 12 10 -2 0 -10 8 -18 17 -18 9
0 14 -2 11 -5 -2 -3 -25 -2 -51 1 -44 6 -46 8 -50 43 l-4 36 -1 -37 c-1 -21
-6 -38 -11 -38 -6 0 -12 17 -14 38 l-4 37 -1 -36 c-2 -34 -5 -37 -34 -40 -31
-4 -167 6 -140 9 14 2 17 82 3 82 -5 0 -12 -13 -16 -30 -7 -30 -7 -30 -76 -30
l-69 0 -1 38 c-1 32 -2 33 -8 12 -5 -19 -14 -25 -36 -25 -23 0 -30 6 -40 35
l-12 35 -286 3 c-294 2 -302 4 -279 40 11 16 649 23 656 7 3 -5 5 -4 5 3 1 8
25 12 86 12 79 0 107 10 69 24 -9 3 -67 6 -130 6 -104 0 -115 2 -113 18 2 9 0
34 -4 55 l-8 37 -513 0 c-572 0 -526 6 -526 -71 0 -35 -3 -39 -25 -39 -24 0
-25 2 -24 63 1 84 10 111 37 115 14 2 22 -2 22 -11 0 -13 68 -16 513 -19 493
-3 513 -3 528 16 12 14 25 17 53 14 25 -3 36 0 36 9 0 11 39 12 203 7 111 -3
207 -7 214 -9 7 -2 15 0 18 5 9 15 145 13 150 -2 4 -10 90 -12 394 -10 375 2
391 2 426 -18 39 -22 55 -25 55 -10 0 6 -9 10 -19 10 -11 0 -23 5 -26 10 -3 6
2 10 12 10 13 0 14 3 5 8 -14 9 -13 72 1 72 5 0 7 8 5 18 -4 15 4 17 68 17 39
0 70 -3 67 -7 -2 -5 -19 -8 -36 -9 -18 0 -41 -4 -52 -8 -16 -7 -14 -9 14 -14
18 -4 45 -5 59 -2 25 5 26 5 5 -4 -31 -14 -29 -23 5 -19 21 2 27 -1 27 -17 0
-15 -10 -22 -45 -29 -41 -9 -42 -10 -16 -14 16 -2 24 -7 18 -11 -7 -4 -8 -12
-2 -21 7 -11 16 -9 51 14 32 22 49 27 76 23 24 -4 36 -2 40 8 3 8 10 12 16 8
7 -4 8 8 3 37 -6 36 -4 41 9 36 14 -5 15 3 10 57 -3 35 -2 54 3 44 7 -17 9
-16 20 8 7 14 10 31 7 36 -9 13 42 30 70 23 12 -3 36 -19 51 -35 26 -27 30
-40 36 -117 4 -48 8 -91 9 -97 1 -6 34 -9 81 -6 89 4 93 -1 58 -69 l-20 -40
22 4 c13 3 1160 5 2551 5 l2527 1 0 250 0 250 -4255 0 -4255 0 0 -1175z m450
553 c0 -51 9 -48 -119 -48 l-119 0 -8 -32 c-4 -18 -7 -39 -5 -45 4 -26 -16
-12 -32 22 -15 32 -23 96 -13 106 8 7 296 4 296 -3z m1359 -245 c217 -56 386
-218 466 -448 26 -74 32 -262 11 -345 -47 -188 -181 -358 -346 -438 -112 -55
-184 -72 -300 -72 -187 0 -338 62 -469 191 -145 143 -218 353 -191 550 22 157
82 279 191 388 170 170 407 235 638 174z m5131 -89 c57 -69 62 -78 51 -97 -15
-22 -51 -124 -51 -141 0 -6 25 14 56 44 l55 55 35 -40 c18 -22 34 -43 34 -46
0 -4 -18 -19 -39 -33 -79 -55 -120 -140 -121 -252 0 -80 12 -124 47 -172 96
-128 275 -53 345 146 38 108 11 240 -78 379 -18 29 -31 53 -27 53 19 0 92 -62
140 -118 61 -73 116 -176 138 -259 20 -75 20 -251 0 -327 -45 -172 -172 -327
-335 -409 -122 -61 -211 -80 -350 -75 -290 12 -527 193 -612 468 -32 105 -32
255 0 360 28 89 69 167 126 234 40 49 135 130 142 123 3 -2 -11 -30 -31 -62
-64 -107 -80 -159 -80 -265 0 -80 4 -102 24 -140 58 -111 131 -170 211 -170
96 0 160 78 168 205 7 114 -15 174 -94 253 l-64 64 20 27 c41 59 46 59 105 1
l54 -53 -10 41 c-5 23 -19 62 -31 86 -19 41 -20 47 -7 63 9 10 37 44 63 76 27
31 50 57 51 57 1 0 31 -34 65 -76z m1414 -1472 c10 -21 16 -54 14 -72 l-3 -33
-145 -3 c-79 -1 -147 -1 -151 1 -3 3 -4 16 -1 30 l4 25 118 0 118 0 8 33 c4
17 7 38 5 45 -5 27 17 10 33 -26z"/>
<path d="M1513 2240 c-121 -24 -259 -109 -346 -212 -33 -40 -38 -50 -27 -63
18 -22 24 -19 55 25 28 40 49 51 58 28 5 -14 6 -14 80 42 26 19 75 47 109 61
51 21 63 30 61 47 -3 21 8 25 87 35 8 1 16 12 18 25 3 18 -1 22 -25 21 -15 -1
-47 -5 -70 -9z"/>
<path d="M1672 2228 c2 -16 11 -24 28 -26 60 -6 70 -12 70 -37 0 -14 6 -25 13
-25 24 0 142 -62 185 -97 37 -30 45 -33 59 -22 14 12 21 8 54 -31 35 -41 40
-43 54 -29 15 14 12 20 -25 68 -76 97 -205 176 -334 206 -89 21 -108 20 -104
-7z"/>
<path d="M1594 1973 c4 -42 10 -88 13 -103 4 -24 1 -28 -24 -34 -15 -4 -46
-20 -68 -35 l-40 -28 -80 59 c-87 65 -84 65 -121 -5 l-15 -27 58 -26 c32 -14
74 -32 93 -40 l35 -14 -2 -78 -1 -77 -83 -36 c-46 -20 -85 -41 -87 -47 -4 -13
23 -68 38 -77 6 -4 44 18 85 49 41 31 78 56 83 56 5 0 17 -9 26 -19 10 -11 37
-28 61 -38 l43 -17 -6 -56 c-4 -30 -7 -75 -7 -100 l0 -45 45 0 c45 0 45 0 45
35 0 19 -4 65 -8 101 l-7 66 44 17 c24 9 52 26 61 36 10 11 21 20 25 20 3 0
40 -25 80 -55 40 -30 77 -55 82 -55 12 0 49 63 46 78 -2 7 -41 30 -87 50 l-84
38 0 78 0 78 84 35 c46 19 86 37 88 39 5 5 -30 83 -41 90 -4 3 -44 -22 -88
-56 l-80 -61 -38 30 c-20 16 -50 33 -65 37 -27 6 -29 9 -23 48 3 22 8 69 12
104 l7 62 -53 0 -53 0 7 -77z"/>
<path d="M1085 1896 c-8 -12 -25 -61 -36 -107 -18 -68 -21 -102 -16 -179 6
-101 40 -228 64 -237 29 -11 36 14 17 62 -14 39 -15 48 -4 55 19 12 22 300 3
300 -17 0 -16 20 2 63 19 45 19 53 0 61 -9 3 -21 -4 -30 -18z"/>
<path d="M2160 1910 c-12 -8 -12 -15 3 -57 21 -60 21 -60 -3 -66 -16 -4 -18
-10 -12 -43 4 -22 7 -68 7 -104 0 -36 -3 -82 -7 -104 -6 -33 -4 -39 12 -43 24
-6 24 -10 4 -58 -17 -41 -13 -65 10 -65 29 0 76 169 76 272 0 66 -27 193 -51
240 -11 21 -20 38 -22 38 -1 0 -9 -4 -17 -10z"/>
<path d="M1141 1321 c-12 -8 -10 -17 14 -51 79 -114 253 -215 403 -234 51 -7
52 -6 52 19 0 20 -5 25 -24 25 -13 0 -38 3 -55 6 -25 5 -30 10 -26 28 5 18 -4
25 -62 48 -38 15 -92 46 -122 69 -45 34 -58 40 -72 31 -15 -10 -24 -5 -52 28
-37 44 -36 43 -56 31z"/>
<path d="M2081 1290 c-27 -33 -35 -38 -50 -29 -14 10 -28 4 -80 -34 -34 -26
-89 -56 -122 -68 -48 -18 -59 -26 -59 -44 0 -24 -22 -35 -72 -35 -23 0 -28 -4
-28 -26 0 -25 2 -25 43 -19 161 25 308 105 397 218 31 39 38 53 29 63 -17 20
-23 18 -58 -26z"/>
<path d="M1858 2572 c-60 -2 -78 -6 -78 -17 0 -12 16 -15 74 -15 50 0 76 -4
79 -12 4 -10 6 -10 6 0 1 9 140 12 659 13 607 1 733 5 692 23 -15 6 -1288 14
-1432 8z"/>
<path d="M6581 623 c-1 -10 -137 -13 -643 -13 -354 0 -653 -3 -665 -6 -13 -4
-23 -10 -23 -15 0 -8 1236 -18 1413 -11 59 2 77 6 77 17 0 12 -16 15 -74 15
-50 0 -76 4 -79 13 -4 10 -6 10 -6 0z"/>
</g>
</svg>
