<?xml version="1.0" standalone="no"?>
<!DOCTYPE svg PUBLIC "-//W3C//DTD SVG 20010904//EN"
 "http://www.w3.org/TR/2001/REC-SVG-20010904/DTD/svg10.dtd">
<svg version="1.0" xmlns="http://www.w3.org/2000/svg"
 width="373.000000pt" height="135.000000pt" viewBox="0 0 373.000000 135.000000"
 preserveAspectRatio="xMidYMid meet">
<metadata>
Created by potrace 1.14, written by Peter Selinger 2001-2017
</metadata>
<g transform="translate(0.000000,135.000000) scale(0.100000,-0.100000)"
fill="#000000" stroke="none">
<path d="M0 1270 l0 -81 498 1 c273 0 602 0 730 0 l234 0 -61 -67 c-70 -75
-123 -176 -147 -275 l-17 -68 -618 0 -619 0 0 -60 0 -60 619 0 619 0 16 -72
c18 -81 77 -205 96 -200 6 1 8 -3 5 -9 -4 -6 19 -38 56 -75 l63 -64 -737 0
-737 0 0 -120 0 -120 1865 0 1865 0 0 120 0 120 -737 0 -737 0 51 50 c88 86
147 193 174 312 l12 58 619 0 618 0 0 60 0 60 -618 0 -618 0 -18 71 c-26 102
-77 196 -147 272 l-61 67 731 0 731 0 0 80 0 80 -1865 0 -1865 0 0 -80z m1876
2 c6 -4 29 -31 52 -60 l42 -53 -21 -41 -21 -41 30 22 c36 25 49 21 79 -21 l22
-31 -48 -46 c-104 -101 -108 -250 -8 -325 23 -17 31 -18 67 -7 111 33 170 158
136 291 -14 54 -38 102 -79 162 -14 21 -5 32 20 24 57 -18 164 -154 197 -251
23 -66 32 -205 17 -277 -37 -176 -190 -338 -365 -384 -66 -18 -206 -18 -272 0
-82 22 -154 65 -224 136 -195 195 -200 505 -11 703 100 106 129 101 69 -10
-31 -57 -41 -87 -42 -124 -1 -27 -4 -49 -7 -49 -12 0 13 -106 33 -138 22 -37
78 -77 119 -87 66 -16 128 61 129 160 0 65 -37 143 -84 181 -44 35 -45 52 -6
89 l30 29 31 -23 30 -23 -15 31 c-23 44 -20 57 27 116 42 54 53 61 73 47z"/>
<path d="M1819 1199 c-32 -40 -32 -41 -16 -75 22 -45 32 -110 19 -118 -6 -3
-25 12 -42 34 -33 42 -48 48 -68 28 -8 -8 0 -23 34 -61 110 -123 93 -323 -33
-366 -39 -14 -45 -14 -93 9 -93 44 -140 122 -139 235 0 42 7 91 18 123 l18 53
-24 -23 c-34 -31 -89 -147 -104 -215 -15 -76 -6 -194 21 -265 48 -130 172
-249 297 -288 90 -28 222 -27 306 1 158 53 279 185 317 348 19 81 8 211 -24
292 -24 59 -83 146 -92 136 -2 -2 3 -24 12 -48 53 -147 -20 -325 -148 -359
-37 -10 -48 -9 -85 9 -117 57 -119 277 -2 375 30 25 31 28 16 44 -16 15 -20
13 -62 -28 -37 -37 -45 -41 -51 -26 -4 9 3 46 15 82 l21 66 -31 39 c-17 21
-34 39 -39 39 -5 0 -23 -18 -41 -41z"/>
<path d="M0 985 l0 -175 205 0 c113 0 386 0 607 0 l402 0 12 52 c22 96 77 199
142 271 l26 27 -697 0 -697 0 0 -175z"/>
<path d="M2384 1106 c53 -66 101 -163 119 -241 l13 -56 122 0 c67 0 340 0 607
1 l485 0 0 175 0 175 -695 0 -695 0 44 -54z"/>
<path d="M0 450 l0 -180 696 0 696 0 -22 28 c-81 105 -136 214 -147 295 l-6
37 -608 0 -609 0 0 -180z"/>
<path d="M2516 618 c-37 -139 -86 -240 -147 -303 -16 -17 -29 -34 -29 -38 0
-4 313 -7 695 -7 l695 0 0 180 0 180 -605 0 c-476 0 -606 -3 -609 -12z"/>
</g>
</svg>
