<?xml version="1.0" standalone="no"?>
<!DOCTYPE svg PUBLIC "-//W3C//DTD SVG 20010904//EN"
 "http://www.w3.org/TR/2001/REC-SVG-20010904/DTD/svg10.dtd">
<svg version="1.0" xmlns="http://www.w3.org/2000/svg"
 width="1366.000000pt" height="768.000000pt" viewBox="0 0 1366.000000 768.000000"
 preserveAspectRatio="xMidYMid meet">
<metadata>
Created by potrace 1.14, written by Peter Selinger 2001-2017
</metadata>
<g transform="translate(0.000000,768.000000) scale(0.100000,-0.100000)"
fill="#000000" stroke="none">
<path d="M0 5376 l0 -2305 53 6 c74 7 104 -7 117 -55 8 -33 7 -47 -9 -82 -12
-28 -17 -55 -14 -79 3 -22 -3 -67 -15 -109 l-20 -72 23 0 c28 0 36 -10 29 -36
-5 -17 -13 -19 -84 -16 l-80 3 0 -1165 c0 -802 3 -1166 10 -1166 7 0 8 -6 0
-19 -5 -11 -10 -78 -10 -150 l0 -131 161 0 161 0 -7 40 c-4 25 -3 40 3 40 6 0
13 -18 17 -40 l7 -40 68 0 69 0 4 32 4 33 1 -32 2 -33 429 0 430 0 4 28 4 27
2 -27 1 -28 248 0 247 0 3 92 c1 51 5 95 8 98 3 3 12 -4 20 -14 9 -13 14 -46
14 -98 l0 -78 470 0 470 0 1 43 1 42 12 -40 13 -40 243 -3 243 -2 -7 137 c-5
85 -4 134 2 128 16 -17 56 -177 56 -222 0 -28 5 -43 13 -43 7 0 13 6 13 14 0
7 7 27 15 42 8 16 15 48 15 71 0 42 17 93 30 93 13 0 20 -73 13 -147 l-6 -73
95 0 c90 0 95 1 108 24 8 15 10 36 6 53 -4 15 -10 44 -13 63 -3 19 -12 44 -19
55 -12 19 -19 68 -15 108 1 21 24 22 41 2 20 -24 30 -18 30 18 0 17 6 55 14
82 15 57 27 46 26 -26 -1 -181 -7 -357 -14 -367 -5 -9 40 -12 198 -12 l206 0
0 23 c1 51 96 145 121 120 18 -18 3 -57 -36 -99 -19 -20 -35 -38 -35 -40 0 -2
1172 -4 2605 -4 l2604 0 -24 36 c-47 69 -21 106 40 60 19 -15 42 -42 51 -61
l16 -35 197 0 196 0 -2 148 c-4 226 -4 245 6 255 10 10 31 -67 31 -112 0 -34
11 -39 30 -16 7 8 19 15 26 15 20 0 19 -113 0 -129 -13 -11 -24 -57 -29 -126
l-2 -30 102 -3 101 -3 -1 85 c-1 46 1 88 6 92 15 16 36 -22 38 -71 5 -89 40
-142 52 -78 9 52 46 183 56 201 8 12 9 -20 5 -105 l-5 -123 242 0 c219 0 243
2 255 18 13 16 13 16 14 0 0 -17 29 -18 470 -18 l470 0 0 63 c0 39 5 71 14 83
14 18 15 18 22 -11 4 -17 8 -54 8 -82 l0 -53 682 0 683 0 4 33 4 32 1 -32 2
-33 70 0 c66 0 70 1 76 25 3 14 10 22 15 19 6 -3 7 -14 4 -25 -6 -18 1 -19
154 -19 l161 0 0 1299 0 1299 -75 4 c-44 2 -77 -1 -79 -7 -2 -5 -7 -2 -11 8
-11 26 2 47 29 47 l25 0 -16 48 c-9 26 -17 79 -18 118 -2 43 -10 84 -20 104
-14 28 -15 39 -6 72 15 48 45 62 119 55 l52 -6 0 2320 0 2319 -6830 0 -6830 0
0 -2304z m1685 -1611 c32 -24 81 -103 70 -113 -2 -2 -20 1 -42 7 -21 6 -78 14
-128 18 -71 5 -93 10 -103 25 -7 10 -21 18 -31 18 -22 0 -61 -52 -61 -81 0
-21 3 -21 65 -17 55 5 67 3 82 -14 15 -17 27 -19 68 -15 28 3 65 13 83 22 19
10 37 13 41 9 19 -21 40 -105 45 -170 2 -40 9 -81 15 -93 10 -18 9 -21 -8 -21
-12 0 -20 7 -20 18 -1 52 -4 71 -12 66 -5 -3 -18 0 -30 7 -15 8 -19 8 -15 0 9
-14 -7 -14 -21 0 -14 14 -65 8 -71 -8 -2 -7 3 -13 12 -13 9 0 16 -4 16 -9 0
-5 9 -13 21 -16 19 -6 18 -8 -13 -24 -26 -13 -44 -15 -88 -8 -30 4 -56 12 -58
17 -2 6 -10 10 -18 10 -15 0 -77 60 -69 68 2 3 27 -5 56 -17 49 -22 52 -22 72
-4 12 10 25 23 29 28 10 13 10 27 1 22 -5 -3 -14 1 -21 9 -7 8 -11 14 -10 15
2 0 18 2 36 4 18 1 41 9 50 18 9 8 24 17 32 20 8 4 -5 6 -30 5 -60 -3 -108 10
-119 30 -8 14 -13 15 -30 4 -18 -10 -21 -10 -21 5 -1 10 -8 -2 -17 -27 -8 -25
-20 -51 -27 -59 -6 -8 -16 -35 -22 -60 -9 -37 -12 -40 -13 -17 -1 25 -4 28
-26 24 -21 -4 -25 -1 -25 18 0 13 4 24 9 24 14 0 25 42 13 49 -7 4 -7 12 -3
20 7 11 10 9 16 -8 12 -37 59 -20 53 20 -3 27 -45 40 -59 18 -5 -9 -10 -4 -16
17 -8 28 -8 28 -14 -16 l-6 -45 -1 46 c-3 64 23 143 52 162 47 31 119 47 198
44 66 -3 82 -8 113 -32z m10545 -18 c57 -19 67 -27 84 -61 11 -22 21 -62 23
-90 l4 -51 -20 40 c-11 22 -20 34 -21 28 0 -19 -30 -16 -30 3 0 25 -40 74 -60
74 -11 0 -24 -9 -30 -20 -9 -16 -21 -20 -68 -20 -31 -1 -91 -7 -132 -14 -41
-8 -76 -12 -78 -11 -7 6 37 81 61 103 50 47 162 55 267 19z m-11450 -138 c28
-6 63 -21 79 -34 26 -23 59 -101 47 -113 -3 -3 -36 2 -73 11 -38 9 -96 19
-130 23 -51 5 -63 10 -63 24 0 10 -8 21 -17 24 -19 8 -62 -38 -63 -66 0 -19
33 -42 44 -30 12 11 -38 -91 -56 -117 -10 -14 -27 -26 -38 -28 -25 -4 -25 2 0
34 11 14 20 32 20 40 0 8 5 11 10 8 15 -9 40 14 40 36 0 11 -7 19 -15 19 -8 0
-15 6 -16 13 0 10 -2 10 -6 0 -2 -7 -8 -13 -12 -13 -13 0 4 106 21 132 28 43
127 59 228 37z m1603 -10 c59 -16 97 -56 104 -108 6 -43 5 -44 -18 -38 -13 4
-60 14 -105 23 -63 13 -82 21 -90 38 -14 32 -41 31 -71 -4 -22 -26 -28 -29
-35 -16 -10 17 -38 11 -38 -9 0 -8 -5 -17 -11 -21 -8 -4 -9 4 -4 27 12 56 34
90 68 104 38 17 147 19 200 4z m9607 -19 c67 -26 115 -26 133 0 12 17 21 20
54 14 22 -3 59 -7 83 -8 24 0 45 -6 47 -12 2 -6 -8 -9 -26 -6 -33 5 -45 -9
-37 -44 5 -17 13 -24 31 -24 15 0 25 -6 25 -14 0 -8 5 -18 12 -22 7 -5 9 -1 6
13 -3 12 -2 27 3 34 5 9 9 -7 9 -43 0 -49 -2 -56 -16 -51 -10 4 -22 -1 -30
-11 -11 -15 -13 -14 -19 16 -4 18 -13 40 -20 48 -7 8 -19 34 -25 57 -12 38
-14 40 -28 26 -14 -14 -17 -14 -23 3 -4 11 -8 13 -8 6 -1 -7 -5 -11 -10 -7 -6
3 -14 -2 -19 -10 -11 -20 -76 -36 -114 -28 -42 8 -34 -3 19 -27 36 -16 48 -18
55 -8 4 7 8 9 9 3 4 -32 3 -41 -8 -45 -8 -3 -9 -10 -3 -19 7 -12 11 -12 24 -2
8 7 21 11 28 8 8 -4 5 -8 -9 -12 -13 -4 -23 -11 -23 -15 0 -19 35 -19 77 0 26
11 48 18 51 16 2 -3 -4 -16 -15 -30 -27 -38 -193 -94 -193 -66 0 5 -12 13 -27
18 -27 9 -28 9 -5 16 12 4 22 12 22 17 0 5 7 9 16 9 8 0 13 4 9 9 -3 6 3 14
12 20 21 11 24 9 -60 54 -73 40 -87 44 -87 25 1 -7 29 -26 63 -41 45 -21 58
-30 47 -37 -8 -5 -18 -6 -23 -3 -5 3 -13 -1 -18 -8 -8 -12 -10 -12 -18 0 -6 9
-10 10 -16 2 -3 -7 -15 -9 -25 -6 -19 6 -19 7 -20 -62 0 -16 -6 -23 -20 -23
-18 0 -19 3 -9 22 7 12 14 54 16 93 2 38 8 81 13 95 5 14 14 37 19 53 6 15 13
27 15 27 3 0 28 -9 56 -20z m-499 -20 c28 -13 56 -76 46 -101 -4 -10 -6 -9 -6
4 -1 18 -16 23 -25 8 -9 -14 -45 -1 -57 20 -15 28 -57 25 -65 -5 -5 -20 -16
-25 -87 -40 -45 -9 -92 -19 -104 -22 -20 -5 -23 -3 -23 21 0 47 28 91 70 110
73 33 188 36 251 5z m1585 7 c17 -9 36 -29 42 -44 16 -40 24 -116 12 -108 -16
10 -50 -5 -50 -21 0 -8 -4 -14 -10 -14 -5 0 -10 7 -10 15 0 8 -4 15 -10 15 -5
0 -10 -4 -10 -10 0 -5 -3 -10 -7 -9 -19 3 -53 -15 -53 -27 0 -10 -14 -12 -57
-8 -79 6 -93 24 -20 24 44 0 60 4 75 20 14 15 30 20 59 19 66 -4 80 19 42 72
-24 35 -46 37 -58 6 -7 -19 -21 -24 -92 -35 -46 -8 -103 -19 -126 -25 -23 -6
-45 -8 -48 -5 -11 11 18 87 41 109 50 47 210 62 280 26z m-12686 -122 c35 -18
70 -61 70 -86 0 -16 -4 -17 -27 -8 -15 5 -62 13 -106 16 -52 4 -81 11 -84 20
-13 34 -73 -8 -73 -52 0 -13 9 -16 48 -14 32 2 56 -3 75 -15 25 -17 30 -17 76
-2 28 9 56 16 63 16 18 0 42 -66 39 -104 -1 -17 6 -38 18 -50 39 -42 44 -73
16 -120 -29 -49 -31 -71 -10 -80 19 -7 20 -64 1 -108 -7 -18 -18 -52 -23 -75
-11 -48 -5 -53 82 -53 l50 0 -35 -19 c-19 -10 -37 -15 -40 -10 -3 4 -16 6 -28
2 -12 -3 -20 -9 -17 -13 5 -8 -295 -4 -302 4 -2 2 4 12 14 24 26 29 58 36 77
16 12 -12 20 -13 30 -5 7 6 34 14 60 17 63 9 44 31 -35 40 -32 4 -59 10 -59
14 0 13 49 60 63 60 7 0 18 -5 24 -11 17 -17 60 -2 80 27 9 14 18 48 20 75 1
28 8 60 15 72 15 25 19 87 7 87 -20 0 -78 -76 -79 -102 0 -16 -3 -28 -7 -28
-5 0 -21 -16 -36 -36 -28 -34 -28 -36 -10 -49 16 -13 14 -14 -27 -15 -43 0
-44 0 -22 16 12 8 22 21 21 27 0 9 -2 9 -5 0 -8 -19 -34 -3 -34 21 0 27 -10
40 -35 50 -13 5 -15 10 -7 13 6 3 12 12 12 21 0 8 6 31 12 50 11 29 10 35 -3
42 -31 18 -64 48 -58 54 3 4 21 0 39 -8 25 -10 40 -11 57 -3 25 11 29 22 13
32 -13 8 -13 35 0 35 5 0 7 -8 4 -17 -5 -16 -4 -16 6 0 6 10 24 23 38 29 26
11 25 11 -23 20 -27 5 -57 16 -66 24 -12 10 -18 11 -27 2 -7 -7 -12 -8 -12 -2
0 5 -11 -11 -25 -35 -14 -23 -25 -51 -25 -61 0 -24 -16 -34 -24 -15 -3 8 -10
14 -17 13 -6 -2 -12 12 -14 30 -2 27 0 31 11 21 9 -8 14 -8 14 -1 0 6 -4 14
-10 17 -5 3 -10 14 -10 23 0 13 3 12 16 -6 18 -26 39 -29 48 -6 9 22 -13 47
-36 41 -15 -4 -18 -1 -13 14 4 10 2 19 -4 19 -5 0 -12 -8 -14 -17 -3 -11 -5
-6 -6 10 -2 51 26 94 72 111 56 19 160 20 197 1z m504 -37 c16 -20 26 -44 26
-65 0 -24 5 -33 16 -33 53 0 114 -59 114 -109 0 -17 -4 -19 -23 -12 -41 16
-92 17 -89 2 2 -9 -3 -11 -13 -7 -9 3 -21 6 -26 6 -5 0 -9 5 -9 12 0 7 -7 32
-16 55 -12 30 -20 40 -28 34 -12 -10 -41 -10 -50 0 -3 3 15 11 39 18 47 14 53
22 32 39 -10 8 -26 5 -62 -13 -53 -26 -80 -32 -70 -15 3 6 16 10 28 10 12 0
31 7 41 15 11 8 16 15 11 15 -5 0 -4 5 3 12 7 7 12 19 12 28 0 16 18 40 31 40
3 0 18 -14 33 -32z m12559 10 c48 -12 74 -37 83 -82 9 -49 0 -68 -29 -61 -31
8 -55 -18 -37 -40 7 -9 20 -13 30 -10 9 3 17 0 18 -7 1 -7 4 -26 8 -42 5 -21
4 -27 -5 -22 -6 4 -14 0 -18 -10 -4 -12 -14 0 -35 46 -15 35 -28 70 -29 79 0
12 -2 12 -8 -3 -5 -14 -10 -16 -15 -8 -4 7 -12 12 -17 12 -6 0 -8 -4 -5 -9 8
-12 -89 -35 -112 -27 -13 5 -13 3 3 -10 11 -8 32 -18 48 -21 30 -6 47 -23 23
-23 -8 0 -16 -5 -18 -11 -2 -6 -28 3 -62 21 -35 18 -63 27 -68 22 -11 -11 82
-62 112 -62 11 0 31 -7 43 -15 20 -13 26 -13 51 0 16 8 36 15 45 15 21 -1 -33
-50 -55 -50 -18 0 -18 -24 2 -77 10 -25 21 -40 28 -37 6 3 2 -2 -8 -10 -28
-22 -34 -20 -29 12 l3 27 -10 -25 c-7 -14 -10 -40 -8 -58 3 -24 1 -31 -9 -28
-11 4 -11 1 -2 -15 10 -19 9 -20 -13 -14 -23 7 -23 7 -3 -10 20 -16 20 -16 -5
-11 -14 3 -32 6 -40 6 -12 0 -12 2 -2 8 15 10 5 42 -13 42 -7 0 -16 11 -19 25
-4 14 -10 25 -14 25 -5 0 -7 12 -5 28 3 22 -3 32 -31 52 -20 14 -34 30 -32 36
2 6 -2 11 -10 11 -7 0 -11 -4 -8 -9 3 -5 1 -14 -4 -21 -7 -8 -5 -25 8 -52 10
-22 17 -53 15 -69 -4 -30 25 -99 48 -113 8 -4 19 -17 26 -28 11 -19 12 -18 5
4 -4 16 -3 21 5 16 7 -4 18 -1 26 5 12 10 22 10 45 0 16 -7 30 -16 30 -20 0
-5 2 -15 6 -23 4 -11 -8 -16 -55 -21 -69 -8 -106 -35 -50 -37 19 -1 38 -1 43
0 5 1 17 -6 27 -15 17 -15 19 -15 34 0 9 9 21 16 26 16 18 0 48 -20 58 -39 9
-16 5 -18 -36 -20 -25 0 -52 4 -59 10 -11 9 -14 8 -14 -5 0 -10 -5 -14 -10
-11 -6 4 -8 12 -4 18 3 7 0 5 -8 -4 -18 -21 -183 -28 -175 -6 5 14 -23 20 -33
8 -3 -4 -21 2 -40 11 -19 10 -30 18 -25 19 6 0 35 1 65 2 l55 2 -2 48 c-2 26
-10 61 -18 77 -22 42 -19 97 5 112 19 12 19 14 -10 65 -33 57 -30 85 11 129
12 12 19 33 18 50 -2 16 4 46 12 67 13 36 16 38 44 32 73 -15 104 -16 126 -4
13 7 45 11 72 10 53 -3 60 10 31 54 -18 28 -49 33 -58 10 -4 -11 -21 -15 -64
-15 -32 0 -80 -6 -105 -14 -45 -13 -47 -13 -47 5 0 11 15 36 33 56 47 51 108
59 220 31z m-10533 -13 c28 -15 60 -65 60 -95 0 -21 -169 17 -188 42 -17 24
-31 23 -59 -4 -13 -12 -23 -16 -23 -10 0 15 -31 4 -47 -16 -16 -20 -16 -5 -2
38 17 48 75 72 161 66 36 -3 81 -12 98 -21z m9899 -14 c6 -10 7 -21 4 -25 -3
-3 -2 -6 4 -6 6 0 13 -9 16 -20 3 -11 22 -27 42 -36 21 -8 35 -17 32 -20 -3
-3 -28 6 -56 21 -53 26 -64 26 -80 -3 -7 -14 -4 -17 18 -18 14 -1 42 -9 61
-18 34 -16 34 -16 5 -10 -56 10 -68 9 -71 -6 -1 -8 -8 -31 -16 -50 -7 -19 -13
-36 -13 -36 0 -1 -11 -5 -24 -9 -20 -6 -23 -4 -18 9 8 20 -6 20 -66 2 -46 -14
-47 -13 -47 7 0 44 37 86 85 99 42 11 45 15 45 44 0 40 9 66 21 59 4 -3 13 4
19 15 13 25 26 26 39 1z m-1878 -8 c30 -11 45 -25 55 -49 18 -44 18 -45 -12
-34 -14 6 -29 8 -34 5 -4 -2 -15 4 -25 15 -23 25 -40 25 -57 1 -9 -13 -39 -24
-98 -35 -46 -8 -86 -14 -88 -11 -7 7 19 73 33 85 47 39 158 51 226 23z m-8741
-17 c-16 -44 -34 -65 -45 -56 -12 10 -65 1 -65 -12 0 -5 -4 -6 -10 -3 -5 3
-10 1 -10 -6 0 -10 -3 -10 -12 -1 -17 17 -43 15 -58 -3 -7 -9 -21 -13 -30 -10
-19 6 -35 -9 -44 -40 -3 -11 -4 0 -1 24 2 32 10 50 27 63 33 26 96 41 145 34
30 -4 45 -2 50 8 4 8 19 16 33 19 14 2 26 5 27 6 1 0 -2 -10 -7 -23z m1196
-30 c40 -40 46 -69 12 -61 -13 3 -44 7 -71 9 -26 2 -56 11 -66 20 -22 20 -45
13 -60 -20 -6 -14 -16 -22 -21 -19 -6 4 -8 10 -6 14 3 4 -8 5 -25 3 -32 -5
-34 -1 -18 30 17 32 86 58 158 58 59 0 65 -2 97 -34z m8098 11 c3 3 16 -5 27
-18 15 -16 23 -20 26 -11 6 15 55 16 107 1 50 -14 86 -50 86 -86 0 -20 -3 -24
-9 -14 -5 7 -14 10 -20 7 -6 -4 -11 0 -11 9 0 11 -5 15 -15 11 -9 -3 -18 1
-22 10 -5 13 -15 15 -45 10 -29 -5 -38 -3 -32 5 4 8 3 9 -5 5 -6 -4 -17 -3
-24 2 -15 11 -47 12 -47 0 0 -4 -3 -8 -8 -8 -6 0 -20 23 -50 83 -3 5 5 4 15
-2 11 -6 23 -7 27 -4z m-1026 -27 c46 -21 63 -50 61 -103 -2 -31 -2 -31 -6 -4
-5 30 -28 46 -44 30 -7 -7 -20 0 -40 20 -29 29 -30 29 -50 11 -14 -13 -40 -19
-90 -22 -38 -2 -69 0 -69 4 0 15 45 74 60 78 43 11 138 4 178 -14z m-9088 -55
c26 -53 25 -61 -5 -128 -22 -46 -24 -59 -14 -81 10 -20 8 -40 -6 -98 -9 -40
-23 -87 -30 -105 l-13 -32 39 -6 c22 -4 59 -7 84 -7 25 -1 45 -3 45 -5 0 -3
-10 -13 -22 -23 -19 -15 -23 -28 -23 -74 0 -39 5 -60 15 -66 8 -5 11 -12 7
-16 -14 -15 -32 17 -37 69 -5 49 -7 52 -33 52 -18 -1 -26 3 -23 12 3 7 1 13
-4 13 -6 0 -10 -4 -10 -10 0 -15 -60 -12 -61 3 0 10 -2 10 -6 0 -3 -8 -23 -13
-49 -13 -28 0 -44 5 -45 13 0 10 -2 10 -6 0 -7 -18 -23 -16 -23 2 0 18 -16 20
-23 3 -4 -10 -8 -9 -16 2 -9 13 -11 13 -11 -2 0 -10 -3 -18 -6 -18 -4 0 -13 8
-20 18 -7 9 -14 12 -14 6 0 -16 -50 -14 -50 1 0 7 -11 16 -25 19 -14 4 -24 10
-23 14 7 31 -61 92 -103 92 -26 0 -79 24 -79 36 0 19 -20 28 -33 15 -8 -8 -8
-11 2 -11 7 0 10 -4 7 -9 -7 -11 -94 5 -112 20 -8 6 -14 21 -14 33 0 13 -3 16
-8 9 -4 -6 -8 11 -9 38 -1 35 3 49 13 49 16 0 36 -34 26 -45 -4 -4 3 -4 16 -1
13 5 22 3 22 -3 0 -20 28 -11 33 11 5 16 9 19 19 11 14 -12 51 -2 63 16 3 6
14 11 25 11 10 0 20 7 24 15 7 18 46 20 46 2 0 -7 27 -49 59 -93 37 -49 64
-97 71 -127 11 -43 30 -64 30 -34 0 6 5 4 11 -5 5 -10 18 -18 27 -18 10 0 23
-5 30 -12 9 -9 15 -9 24 0 7 7 37 12 68 12 61 1 56 8 -25 35 -26 9 -56 14 -67
12 -11 -3 -21 0 -25 9 -3 8 -9 11 -14 8 -5 -3 -6 -10 -3 -16 4 -6 1 -9 -7 -6
-7 2 -16 18 -20 34 -3 16 -19 54 -34 84 -16 30 -29 57 -30 60 0 3 -13 24 -29
48 -16 23 -27 44 -25 46 11 11 78 34 83 28 3 -3 6 -24 6 -48 0 -36 3 -42 23
-46 13 -2 28 1 35 8 15 17 16 27 0 18 -23 -14 18 144 51 195 14 22 117 38 168
26 37 -8 46 -16 63 -50z m1250 35 c14 -8 17 -16 11 -37 -7 -25 -12 -27 -55
-28 -31 -1 -50 3 -53 12 -3 7 -14 13 -24 13 -26 0 -36 -44 -15 -65 22 -22 20
-28 -4 -15 -14 7 -20 21 -20 44 0 33 -2 34 -47 41 l-48 7 34 17 c39 21 190 28
221 11z m9841 -21 c34 -8 39 -15 64 -76 14 -36 28 -87 30 -112 2 -25 4 -49 4
-52 1 -3 12 -4 25 -2 20 4 24 11 24 44 1 21 3 43 7 48 7 12 80 -12 79 -25 -2
-25 -30 -74 -41 -74 -9 0 -12 -9 -7 -27 4 -19 3 -24 -4 -15 -7 11 -11 7 -16
-14 -4 -15 -16 -40 -27 -55 -10 -15 -19 -35 -19 -46 0 -10 -4 -24 -9 -31 -6
-10 -11 -9 -22 4 -9 11 -9 15 -2 10 9 -5 11 -2 7 9 -4 8 -1 21 5 28 6 8 10 27
9 43 -1 16 2 42 7 58 6 21 5 27 -4 22 -6 -4 -11 -14 -11 -22 0 -8 -4 -12 -10
-9 -5 3 -10 17 -10 31 0 13 -5 24 -11 24 -8 0 -10 -17 -7 -50 4 -42 3 -47 -8
-32 -7 9 -16 13 -20 9 -5 -4 -2 -12 6 -17 11 -7 0 -10 -34 -10 -34 0 -52 5
-61 17 -7 9 -22 18 -34 20 -17 2 -21 -2 -21 -27 0 -39 37 -56 83 -40 26 9 34
7 53 -11 13 -12 29 -19 37 -16 10 4 13 -1 9 -19 -3 -16 -11 -24 -26 -24 -34 0
-110 -26 -114 -38 -2 -8 11 -12 40 -12 24 0 49 -5 56 -12 8 -8 15 -8 24 0 7 5
30 13 51 17 34 7 38 11 44 47 4 27 26 67 69 125 35 47 64 92 64 99 0 21 33 17
52 -6 11 -12 25 -17 40 -15 12 3 25 -1 30 -8 7 -12 11 -13 48 -16 11 0 20 -8
20 -16 0 -19 7 -19 27 0 8 8 19 13 24 10 5 -4 9 1 9 10 0 11 5 15 16 11 8 -3
13 -2 10 3 -3 5 1 14 8 20 12 10 12 3 0 -46 -19 -75 -34 -105 -51 -99 -7 3
-13 1 -13 -4 0 -6 -22 -10 -49 -10 -27 0 -62 -7 -77 -15 -16 -8 -40 -15 -52
-15 -45 0 -111 -59 -104 -92 1 -4 -9 -10 -23 -14 -14 -3 -25 -13 -25 -21 0 -9
-6 -13 -14 -10 -7 3 -19 0 -25 -6 -8 -8 -11 -7 -11 6 0 23 -20 22 -20 0 -1
-17 -2 -17 -13 -1 -12 15 -14 15 -24 0 -11 -16 -12 -16 -12 1 -1 9 -9 17 -18
17 -14 0 -15 -2 -4 -9 20 -13 3 -18 -66 -20 -47 -2 -63 1 -63 11 0 9 -2 10 -8
1 -10 -16 -88 -21 -84 -5 1 7 -8 12 -20 12 -17 0 -19 -3 -9 -9 9 -6 10 -11 2
-15 -6 -4 -11 -26 -11 -50 0 -43 -22 -87 -36 -73 -5 4 -2 12 5 16 8 5 16 32
19 59 4 45 1 54 -22 77 -14 14 -26 27 -26 29 0 2 21 4 48 4 26 1 64 4 84 7
l36 6 -12 32 c-8 18 -21 65 -31 105 -14 58 -15 79 -6 99 10 21 7 34 -14 80
-30 65 -30 75 -7 128 15 33 25 41 63 51 44 11 60 11 130 -7z m-1231 -43 c-50
-9 -50 -9 -50 -46 0 -29 -4 -39 -20 -43 -11 -3 -20 -1 -20 4 0 5 4 9 9 9 13 0
23 34 15 54 -7 20 -40 21 -47 2 -7 -16 -110 -18 -104 -1 2 5 0 20 -4 32 -7 20
-4 23 27 29 19 3 57 4 85 2 27 -3 49 -2 49 3 0 4 25 -3 55 -14 l56 -22 -51 -9z
m-9664 -10 c97 -4 114 -1 114 20 0 27 39 -4 61 -48 22 -43 111 -159 117 -153
2 2 -5 20 -16 42 -11 21 -25 56 -32 78 -7 22 -17 46 -23 53 -18 23 1 24 37 0
21 -14 44 -42 57 -70 12 -27 26 -48 29 -48 4 0 15 -38 25 -85 24 -112 15 -135
-49 -135 -28 0 -51 6 -61 17 -16 16 -16 17 4 25 49 18 8 49 -102 76 -95 24
-147 28 -147 11 0 -6 -7 -9 -15 -5 -8 3 -15 0 -15 -7 0 -8 -3 -8 -9 2 -5 8
-16 11 -26 7 -13 -5 -16 -2 -11 10 4 9 3 33 0 52 -7 34 -8 35 -16 13 -13 -37
-19 -19 -7 24 10 35 8 44 -25 109 l-36 70 28 -28 c27 -25 37 -27 118 -30z
m2071 8 c25 -5 63 -46 63 -68 0 -14 -108 -6 -120 9 -16 20 -46 19 -54 -1 -3
-8 -16 -15 -28 -14 -47 4 -51 1 -44 -30 3 -17 1 -30 -4 -30 -6 0 -10 6 -10 14
0 9 -11 12 -37 10 l-38 -2 24 16 c13 10 36 31 52 47 46 47 117 65 196 49z
m-1597 -27 c11 3 20 9 20 14 0 17 83 -37 96 -63 18 -35 18 -65 -1 -118 -8 -23
-15 -62 -15 -87 0 -30 -5 -45 -15 -49 -8 -4 -15 -12 -15 -20 0 -8 -5 -14 -11
-14 -8 0 -9 11 -5 33 4 17 10 55 13 83 4 42 2 52 -11 57 -10 4 -15 3 -11 -3
11 -18 15 -80 5 -80 -6 0 -10 5 -10 11 0 7 -15 26 -33 43 -18 17 -36 39 -40
49 -4 10 -12 15 -18 12 -6 -4 -10 -1 -8 6 1 8 1 24 0 37 l-1 23 -22 -21 c-26
-24 -38 -26 -38 -5 0 15 57 75 71 75 5 0 9 10 9 23 1 19 2 20 10 5 6 -10 18
-14 30 -11z m9929 4 c15 -15 31 -18 82 -16 35 2 79 6 97 9 37 7 38 4 16 -59
-12 -37 -13 -53 -4 -81 7 -20 9 -38 6 -41 -3 -4 -6 1 -6 10 0 9 -4 19 -10 22
-6 4 -8 -9 -5 -34 5 -36 3 -41 -17 -46 -32 -7 -61 -2 -73 12 -14 18 -219 -30
-248 -58 -21 -19 -21 -21 -4 -33 26 -20 21 -34 -17 -41 -91 -17 -109 13 -81
134 10 45 21 81 25 81 4 0 17 23 30 50 20 43 69 90 93 90 3 0 -10 -39 -28 -87
-19 -48 -33 -88 -31 -90 5 -6 83 91 101 127 16 33 44 70 52 70 1 0 11 -8 22
-19z m-1838 -11 c20 -6 47 -22 60 -38 14 -15 36 -34 49 -43 28 -19 23 -30 -14
-33 -20 -1 -26 -6 -27 -26 -1 -24 -1 -24 -9 3 -5 16 -6 35 -3 43 3 7 -2 21
-11 29 -9 9 -16 12 -16 6 0 -17 -40 -13 -46 4 -8 19 -38 20 -53 2 -11 -13
-121 -24 -121 -12 0 18 32 64 47 68 33 9 108 7 144 -3z m1469 -20 c29 0 78
-32 90 -59 9 -20 8 -27 -6 -40 -15 -15 -16 -15 -11 1 3 10 2 20 -3 23 -6 4
-10 -5 -10 -19 0 -17 -17 -43 -50 -77 -27 -28 -47 -55 -44 -60 3 -5 0 -9 -5
-9 -6 0 -11 16 -11 35 0 20 -5 35 -11 35 -12 0 -8 -78 7 -145 l7 -30 -26 25
c-21 20 -27 34 -27 71 0 26 -7 63 -15 82 -20 48 -19 97 3 124 21 26 86 63 90
52 2 -5 12 -9 22 -9z m-9093 -63 c8 -5 18 -18 22 -30 7 -19 16 -22 69 -22 44
0 65 -5 80 -19 29 -26 35 -65 17 -109 -8 -20 -15 -58 -15 -84 0 -52 -12 -83
-25 -64 -3 7 -1 43 5 82 7 39 9 73 6 76 -3 4 -6 0 -6 -8 0 -9 -8 -4 -20 11
-17 21 -21 23 -30 10 -8 -13 -10 -13 -10 2 0 9 -5 20 -11 24 -9 5 -10 -1 -5
-21 4 -15 9 -57 11 -92 3 -35 7 -69 11 -75 4 -6 -4 -8 -22 -4 -16 3 -57 11
-91 17 -41 8 -63 16 -63 25 0 9 11 14 30 14 23 0 28 -4 23 -16 -5 -13 1 -15
43 -9 27 4 51 9 53 12 20 17 -140 82 -219 88 -14 1 -33 3 -42 3 -12 1 -21 17
-29 47 -11 45 -22 56 -33 33 -3 -7 -3 -3 0 9 3 14 -5 43 -20 73 l-26 51 28
-18 c31 -21 82 -30 91 -15 16 26 96 13 106 -16 3 -9 22 -35 42 -57 39 -44 39
-39 3 57 -12 33 -14 48 -6 51 6 2 13 -1 15 -7 2 -6 10 -15 18 -19z m1673 15
c19 -9 41 -30 48 -45 10 -21 18 -26 34 -21 54 17 148 -21 148 -61 0 -20 -80
-9 -98 13 -10 14 -16 14 -33 4 -11 -7 -24 -10 -29 -7 -6 4 -10 0 -10 -8 0 -7
-16 -21 -35 -30 -49 -24 -55 -21 -20 8 l30 25 -27 -6 c-19 -4 -35 0 -54 15
-18 14 -22 21 -11 21 9 0 19 -4 22 -10 9 -14 58 -12 80 3 17 13 16 15 -15 25
-18 7 -44 12 -56 12 -15 0 -24 6 -24 15 0 9 -9 15 -25 15 -14 0 -25 -5 -25
-10 0 -6 -12 -8 -27 -5 -15 2 -31 -1 -35 -8 -6 -7 -8 0 -6 18 5 53 96 73 168
37z m5428 -28 c12 -8 22 -26 22 -40 0 -28 -15 -32 -29 -6 -9 16 -10 16 -17 -1
-6 -17 -8 -17 -26 3 -18 19 -21 20 -37 6 -10 -9 -42 -23 -72 -32 -49 -15 -52
-17 -34 -30 22 -16 71 -19 80 -4 3 6 18 9 33 9 23 -1 23 -2 5 -6 -12 -2 -27
-11 -33 -19 -7 -8 -24 -14 -39 -14 l-26 0 25 -20 c14 -11 22 -20 18 -20 -13 0
-78 34 -78 41 0 3 -14 12 -31 20 -27 11 -33 10 -43 -3 -6 -8 -30 -18 -53 -21
-35 -6 -43 -4 -43 8 0 40 77 74 140 61 26 -5 31 -1 46 29 11 24 26 38 48 44
50 15 119 12 144 -5z m1546 -56 c-13 -34 -24 -65 -24 -70 0 -10 61 60 76 87
13 23 87 33 108 16 17 -15 76 -8 86 10 5 7 12 11 15 7 4 -4 -6 -30 -22 -60
-16 -29 -33 -66 -37 -82 -8 -31 -28 -56 -45 -56 -6 0 -11 -5 -11 -10 0 -7 -6
-8 -17 -2 -9 6 -28 6 -42 2 -14 -5 -53 -16 -86 -26 -33 -10 -70 -24 -82 -31
-28 -19 -32 -9 -22 62 4 33 6 61 3 64 -2 2 -4 -4 -4 -15 0 -12 -3 -15 -8 -7
-5 8 -12 8 -26 -3 -11 -7 -17 -17 -13 -20 4 -4 13 -1 22 6 23 19 18 4 -9 -25
-19 -21 -23 -22 -20 -7 3 10 -2 24 -10 31 -14 12 -16 11 -16 -6 0 -11 5 -45
11 -76 12 -60 6 -104 -11 -77 -6 8 -10 35 -10 60 0 25 -7 66 -16 91 -15 40
-15 49 -3 75 8 15 25 34 39 41 31 16 100 17 100 2 0 -8 5 -8 15 1 8 7 15 17
15 23 0 15 51 67 61 62 4 -3 -3 -33 -17 -67z m-8054 32 c-15 -29 -4 -40 39
-40 23 0 48 -8 62 -19 29 -23 29 -63 2 -186 -16 -76 -22 -90 -39 -90 -17 0
-44 17 -44 28 0 9 30 3 30 -7 1 -6 7 0 14 14 16 30 30 113 16 90 -5 -8 -10
-10 -10 -5 0 6 -5 3 -10 -5 -8 -12 -10 -10 -10 9 0 17 -4 22 -15 17 -11 -4
-17 3 -22 25 -4 22 -8 27 -14 17 -6 -9 -9 -4 -9 16 0 26 -2 27 -17 15 -10 -7
-15 -9 -11 -5 4 5 3 15 -3 23 -9 10 -8 18 3 31 8 9 15 30 16 45 2 33 9 47 23
47 6 0 6 -8 -1 -20z m7458 -50 c2 -19 12 -45 23 -59 11 -13 16 -27 11 -30 -5
-3 -12 -13 -15 -21 -4 -10 -6 -8 -6 8 -1 12 -5 22 -10 22 -11 0 -23 -29 -16
-40 3 -5 -10 -24 -30 -43 -19 -19 -35 -40 -36 -48 -1 -8 -7 4 -15 26 l-14 40
5 -40 c8 -69 26 -120 35 -104 5 7 13 10 17 5 9 -9 -26 -38 -41 -33 -6 2 -14
21 -18 43 -4 21 -15 71 -24 110 -27 111 -6 144 89 144 39 0 44 8 26 42 -9 16
-8 19 3 16 7 -3 14 -20 16 -38z m-7580 -22 c22 -28 74 -140 79 -173 6 -37 3
-41 -25 -26 -31 17 -146 41 -155 32 -18 -18 -55 15 -82 74 -16 33 -30 62 -32
65 -2 3 14 5 34 4 21 0 40 2 43 6 3 4 19 11 37 14 29 7 34 4 56 -31 13 -21 34
-46 45 -56 18 -17 18 -14 -4 29 -25 49 -30 74 -15 74 5 0 13 -6 19 -12z m6210
-22 c12 -11 17 -33 16 -66 -1 -74 -10 -77 -49 -16 -9 14 -15 14 -49 2 -35 -12
-37 -14 -18 -20 12 -4 21 -13 19 -19 -1 -7 9 -12 26 -12 36 1 34 -13 -5 -29
-36 -16 -58 -11 -58 11 0 11 -7 14 -25 11 -22 -5 -25 -2 -25 24 0 46 17 70 40
58 24 -13 57 -13 62 0 5 14 48 0 48 -16 0 -8 7 -14 15 -14 8 0 15 7 15 15 0 8
-4 15 -9 15 -5 0 -12 11 -15 25 -6 24 -31 35 -38 17 -1 -5 -29 -12 -61 -16
-55 -6 -57 -5 -47 13 5 11 18 25 28 31 24 15 110 6 130 -14z m-5786 -45 c24
-43 40 -39 22 5 -19 46 -11 54 20 21 14 -15 31 -27 39 -27 7 0 26 -13 41 -29
27 -28 27 -29 12 -72 -8 -24 -15 -38 -16 -31 0 6 -11 12 -24 12 -14 0 -48 5
-76 12 -38 9 -53 9 -59 0 -11 -19 -27 0 -68 78 l-39 75 53 -3 c39 -3 53 0 53
10 1 15 15 -2 42 -51z m7288 37 c0 -7 -9 -33 -20 -57 -17 -36 -17 -41 -4 -30
9 8 27 31 40 51 14 21 31 38 40 38 8 0 13 -3 11 -7 -3 -5 17 -9 44 -10 26 -1
56 -6 64 -11 15 -8 15 -11 3 -23 -8 -8 -18 -26 -21 -41 -4 -14 -19 -40 -33
-57 -21 -25 -29 -29 -45 -21 -18 10 -111 -6 -166 -30 -28 -12 -29 -2 -6 66 15
46 21 58 58 119 16 27 35 33 35 13z m-353 -24 l52 5 -25 -44 c-13 -24 -24 -49
-24 -54 0 -6 -10 -22 -22 -36 -16 -19 -29 -24 -45 -20 -19 4 -56 -1 -151 -21
-14 -3 -21 -1 -18 5 4 5 1 21 -6 35 -10 24 -8 30 17 56 16 17 37 30 46 30 10
0 26 12 37 27 26 36 39 23 18 -18 -19 -38 -19 -39 -6 -39 5 0 21 21 36 46 15
26 30 41 34 35 3 -7 27 -9 57 -7z m-6436 -64 c26 8 31 6 41 -15 6 -13 17 -26
24 -29 17 -6 17 -1 4 24 -9 17 -6 20 23 25 41 8 87 -9 88 -32 2 -33 -3 -68
-12 -83 -7 -13 -8 -13 -9 1 0 9 -9 24 -20 34 -23 20 -24 17 -10 -19 9 -23 7
-26 -15 -26 -13 0 -27 4 -30 10 -3 5 -21 8 -40 5 -32 -4 -34 -1 -59 49 -14 29
-26 57 -25 62 0 5 3 4 5 -3 4 -8 14 -9 35 -3z m5779 -27 c0 -1 -5 -14 -10 -30
l-10 -28 26 30 c21 23 34 29 58 26 17 -1 33 -4 34 -6 2 -2 -8 -26 -24 -53 -24
-44 -31 -49 -63 -49 -20 0 -47 -4 -60 -8 -23 -8 -24 -7 -18 26 6 30 5 32 -7
17 -7 -10 -16 -15 -19 -11 -4 3 -7 1 -7 -5 0 -7 6 -12 13 -12 8 0 7 -3 -3 -10
-33 -21 -47 83 -14 107 14 10 104 16 104 6z m-5135 -70 c17 -1 35 3 42 9 8 7
16 1 27 -20 15 -28 46 -61 46 -48 0 4 -5 16 -11 27 -6 11 -9 25 -6 32 7 22 57
-72 57 -108 0 -31 -3 -35 -25 -35 -19 0 -25 5 -23 17 4 24 -85 52 -113 35 -16
-10 -19 -9 -19 3 0 8 -4 15 -9 15 -5 0 -7 9 -4 19 3 10 0 28 -6 39 -10 19 -3
40 8 25 3 -5 20 -9 36 -10z m-2863 -4 c53 -11 98 -41 98 -66 0 -7 6 -13 13
-14 6 0 3 -4 -8 -9 -16 -7 -13 -9 18 -9 l37 -1 0 -120 c0 -113 1 -120 20 -120
18 0 20 -7 20 -70 0 -38 -4 -70 -8 -70 -4 0 -6 -16 -4 -35 4 -34 -30 -150 -62
-210 -9 -17 -27 -57 -41 -90 -24 -58 -24 -59 -20 -20 9 87 13 159 8 137 -4
-20 -9 -23 -31 -17 -15 4 -27 7 -27 8 0 8 -61 117 -65 117 -3 0 -5 13 -6 30
-1 26 4 31 47 46 55 20 62 31 22 36 -26 3 -28 6 -31 58 -3 45 0 57 17 70 16
12 21 28 22 78 2 69 19 98 19 33 0 -37 2 -41 25 -41 14 0 25 5 25 11 0 5 -5 7
-11 3 -16 -9 -29 15 -29 53 0 23 5 33 20 38 14 4 20 15 20 36 0 26 -3 29 -32
28 -22 -1 -26 -3 -11 -6 29 -6 37 -29 9 -28 -26 2 -56 14 -76 30 -20 17 -88
24 -94 10 -2 -5 -5 13 -5 42 -1 73 18 83 121 62z m7421 -25 l34 5 -1 -39 c-1
-38 -3 -40 -36 -46 -71 -12 -115 -30 -112 -48 2 -11 -4 -16 -23 -16 -35 0 -37
38 -4 102 33 65 50 60 23 -7 -7 -18 -6 -19 10 -6 9 8 24 28 32 43 12 23 18 27
29 18 8 -6 29 -9 48 -6z m2958 -4 c15 -9 19 -21 19 -63 0 -29 -4 -47 -8 -41
-9 14 -55 12 -73 -2 -22 -18 -73 -40 -86 -38 -7 1 -17 2 -23 3 -5 0 -10 6 -10
11 0 6 3 9 8 9 23 -4 42 2 37 12 -4 6 2 13 14 16 11 3 19 9 16 13 -8 13 -45
-1 -45 -16 0 -8 -9 -14 -20 -14 -29 0 -28 -56 1 -65 17 -6 20 -14 17 -48 -2
-34 -7 -41 -20 -39 -10 2 -18 -2 -18 -8 0 -5 11 -10 25 -10 23 0 25 4 25 41 0
24 4 38 10 34 6 -3 10 -37 10 -76 0 -63 2 -69 21 -69 19 0 20 -5 17 -62 -3
-60 -4 -63 -30 -66 -41 -5 -34 -18 17 -32 42 -12 82 -40 56 -40 -6 0 -11 -7
-11 -16 0 -19 -60 -135 -75 -146 -18 -13 -32 -9 -43 15 -10 20 -11 18 -11 -19
-1 -22 2 -44 6 -48 4 -3 8 -28 9 -54 l2 -47 -18 40 c-86 183 -124 300 -108
329 6 10 5 16 -2 16 -6 0 -10 27 -10 69 0 60 2 69 20 74 19 5 20 14 20 121 0
125 -2 120 55 117 19 -1 19 0 2 7 -17 7 -17 9 -3 21 9 7 16 19 16 27 0 17 15
26 75 40 64 16 92 17 116 4z m-821 -80 c0 -6 11 -16 25 -22 31 -14 33 -36 3
-34 -13 1 -29 -2 -35 -7 -8 -6 -18 -5 -26 1 -16 14 -61 -13 -51 -30 4 -6 10
-6 17 1 13 13 27 14 27 2 0 -19 -33 -21 -53 -4 -19 18 -19 17 -12 -7 8 -26 52
-70 71 -70 6 0 11 -19 12 -42 1 -24 7 -44 12 -46 6 -2 10 -28 10 -57 0 -43 -4
-54 -17 -58 -14 -3 -11 -8 14 -23 23 -13 33 -26 33 -44 0 -26 -64 -130 -80
-130 -5 0 -11 17 -13 38 -3 20 -4 12 -2 -18 1 -30 5 -66 9 -80 4 -14 -14 18
-39 70 -41 84 -46 100 -40 140 3 25 10 122 14 215 5 94 9 174 10 178 3 22 111
48 111 27z m-10267 -47 c4 -2 7 -12 7 -21 0 -10 9 -25 20 -35 20 -17 28 -43
10 -32 -16 10 -23 -21 -16 -69 6 -39 9 -43 29 -38 18 5 19 7 5 10 -24 5 -23
19 3 33 13 7 19 17 16 29 -3 12 0 17 9 13 9 -3 14 -36 17 -116 2 -62 8 -124
12 -139 5 -21 0 -44 -24 -94 -32 -69 -36 -84 -23 -84 4 0 16 23 27 52 15 42
20 48 26 32 10 -25 10 -197 0 -254 -8 -42 -9 -39 -10 31 -1 59 -5 78 -16 83
-14 5 -15 -6 -9 -82 4 -52 1 -131 -6 -197 -7 -61 -14 -118 -15 -128 -1 -10 -9
-25 -19 -35 -17 -16 -18 -15 -12 23 3 22 8 141 11 265 3 124 10 243 15 265 6
22 6 55 2 75 l-8 35 -29 -55 c-15 -30 -40 -71 -55 -90 -15 -19 -34 -47 -41
-62 -13 -26 -14 -21 -14 65 1 50 2 113 3 140 l2 47 40 0 40 0 0 59 0 60 -34
-6 c-25 -4 -35 -1 -40 12 -3 10 -1 24 5 31 16 19 6 144 -12 155 -10 6 -8 9 8
9 25 0 39 16 21 24 -7 3 1 3 17 -1 17 -3 33 -8 38 -10z m1559 -358 c2 -40 -6
-66 -35 -129 -21 -43 -40 -76 -43 -73 -3 3 -1 14 5 25 6 12 10 40 9 64 -1 38
-2 39 -5 10 -3 -23 -9 -32 -18 -28 -8 3 -16 0 -19 -7 -2 -7 -5 -3 -5 8 -1 11
-12 38 -26 60 -32 53 -32 88 0 103 25 11 34 32 15 32 -6 0 -10 31 -10 74 0 41
5 78 10 81 6 3 10 15 10 26 0 10 5 19 10 19 6 0 10 -7 10 -15 0 -8 9 -15 20
-15 12 0 20 7 20 18 0 13 -2 14 -9 4 -7 -11 -9 -11 -14 2 -4 10 2 22 18 32 14
9 29 28 33 43 6 23 14 -86 24 -334z m10191 322 c20 -10 23 -17 15 -31 -10 -18
-6 -109 7 -159 8 -28 7 -29 -31 -25 l-39 3 -3 -57 -3 -58 41 0 c25 0 40 -5 41
-12 1 -7 2 -71 4 -142 l3 -129 -22 36 c-11 19 -43 72 -71 117 -46 77 -50 81
-56 56 -4 -14 -5 -38 -2 -53 2 -16 8 -141 13 -280 4 -138 11 -267 15 -285 6
-30 6 -32 -10 -17 -24 24 -48 220 -42 349 3 58 3 99 0 91 -5 -11 -7 -11 -15 0
-9 13 -8 -43 6 -276 l5 -80 -9 80 c-6 44 -14 108 -20 141 -11 68 -12 235 -1
274 6 22 8 21 24 -21 9 -24 17 -51 17 -59 1 -12 3 -11 11 2 7 13 2 33 -22 79
-24 48 -29 69 -24 93 4 17 9 81 12 143 3 90 7 112 20 117 9 4 18 4 21 1 3 -3
0 -5 -6 -5 -17 0 -15 -30 3 -36 18 -7 20 -34 3 -34 -9 0 -8 -4 2 -10 28 -18
27 -20 36 70 6 49 5 53 -10 41 -14 -11 -16 -11 -16 2 0 9 9 21 20 27 11 6 20
19 20 29 0 34 21 40 63 18z m-9005 -29 c11 -14 23 -114 23 -193 -1 -27 4 -105
10 -172 5 -67 7 -146 3 -175 l-7 -53 -18 70 c-10 42 -15 87 -12 113 4 26 2 42
-5 42 -6 0 -16 17 -23 38 -7 20 -18 47 -26 58 -12 19 -11 23 12 38 20 13 25
25 25 56 0 29 -4 40 -15 40 -12 0 -15 14 -15 68 0 38 3 72 7 75 10 11 30 8 41
-5z m-245 -238 c4 -58 9 -137 13 -176 4 -39 3 -98 -2 -130 l-8 -59 -6 55 c-4
40 -9 54 -19 52 -14 -3 -13 30 4 115 3 18 0 14 -10 -11 -8 -22 -18 -42 -21
-45 -8 -7 0 36 11 63 7 15 5 17 -12 12 -17 -5 -22 2 -38 54 -17 56 -17 61 -2
78 23 26 24 120 1 129 -15 6 -15 7 -1 18 8 6 17 22 19 35 2 16 11 26 28 30 24
6 25 4 31 -54 4 -34 9 -108 12 -166z m-470 94 c-4 -63 -2 -93 6 -98 22 -14 11
-83 -25 -161 -35 -77 -56 -96 -35 -33 6 18 8 53 5 78 -7 57 -15 66 -13 14 2
-63 1 -68 -15 -52 -19 19 -46 74 -46 93 0 9 12 27 28 41 15 14 21 22 13 18
-11 -5 -12 8 -8 77 7 104 10 112 50 131 29 14 33 14 39 -1 4 -9 4 -57 1 -107z
m1657 77 c0 -20 5 -42 10 -47 15 -15 -4 -104 -35 -161 l-25 -48 6 40 c4 28 2
36 -4 26 -8 -11 -15 -5 -31 27 -25 49 -25 52 -5 52 11 0 14 6 9 20 -9 29 4 80
21 80 8 0 14 5 14 11 0 5 -4 7 -10 4 -12 -7 -13 5 -2 21 8 13 34 23 45 17 4
-2 7 -21 7 -42z m5308 -29 c3 -60 1 -72 -12 -72 -12 0 -16 -10 -16 -40 0 -22
4 -40 10 -40 5 0 14 -8 19 -18 11 -20 -18 -119 -39 -132 -9 -5 -10 -19 -6 -43
4 -22 0 -62 -11 -104 -17 -68 -17 -68 -25 -33 -5 19 -4 103 1 185 5 83 10 166
10 185 2 76 13 166 24 178 5 7 17 11 26 10 13 -3 17 -19 19 -76z m-5958 25 c0
-18 4 -49 9 -69 5 -21 6 -38 2 -38 -3 0 -4 -67 -2 -150 2 -94 0 -150 -7 -150
-11 0 -22 57 -22 118 0 23 -4 42 -9 42 -5 0 -16 20 -25 45 -15 45 -13 75 5 75
16 0 10 87 -6 94 -8 3 -15 10 -15 16 0 5 7 10 15 10 8 0 15 9 15 19 0 19 18
32 33 24 4 -2 7 -19 7 -36z m6228 -10 c2 -15 8 -27 13 -27 5 0 9 -7 9 -15 0
-8 -4 -15 -10 -15 -17 0 -12 -101 7 -122 16 -17 15 -22 -4 -76 -11 -31 -25
-57 -32 -57 -13 0 -14 -6 -5 -41 11 -43 -3 -38 -20 8 -14 38 -15 39 -9 8 12
-58 9 -105 -4 -102 -9 1 -13 -16 -14 -60 -1 -63 -1 -63 -11 -23 -9 36 -7 95 7
295 2 30 7 103 10 161 l7 107 26 -7 c20 -5 28 -15 30 -34z m-1191 -34 c13 -40
14 -59 6 -71 -8 -14 -6 -19 14 -27 l24 -10 -36 -39 c-28 -31 -35 -46 -31 -65
3 -14 -7 -1 -23 29 -34 65 -49 155 -27 163 8 3 12 15 9 31 -8 37 2 55 26 49
15 -4 26 -22 38 -60z m1671 -18 c-1 -24 1 -41 6 -38 5 3 7 -22 4 -56 -3 -50
-1 -64 14 -78 22 -20 23 -35 2 -76 -21 -39 -34 -49 -51 -35 -17 13 -17 -7 -2
-51 22 -63 0 -41 -36 36 -31 66 -35 84 -29 118 3 22 6 81 5 130 -1 50 1 100 4
113 l5 22 41 -21 c39 -20 41 -22 37 -64z m-1048 44 c0 -10 7 -19 15 -19 8 0
15 -5 15 -10 0 -6 -7 -13 -15 -16 -20 -8 -20 -78 1 -98 14 -15 14 -21 -1 -66
-9 -28 -21 -50 -27 -50 -7 0 -9 -19 -6 -50 3 -27 1 -50 -3 -50 -5 0 -9 -13 -9
-30 0 -16 -5 -30 -11 -30 -7 0 -10 46 -9 143 3 195 2 200 -12 191 -7 -4 -5 2
5 13 9 11 17 35 17 55 0 19 3 37 6 41 11 11 34 -5 34 -24z m-7304 -310 c25
-37 28 -49 27 -124 0 -54 -13 -150 -38 -276 -54 -271 -70 -282 -39 -26 17 136
16 430 -2 472 -7 17 -6 18 8 7 9 -7 28 -31 44 -53z m511 -8 c19 -45 18 -159
-2 -253 -30 -142 -45 -223 -46 -253 0 -29 -1 -29 -10 -6 -6 16 -4 64 6 146 16
133 18 260 6 367 -7 66 -7 67 12 50 11 -9 26 -32 34 -51z m-969 -246 c5 -44 8
-96 6 -115 -2 -19 -9 -87 -15 -150 -7 -63 -11 -138 -10 -167 1 -28 -2 -54 -7
-57 -11 -7 -21 46 -17 89 14 150 25 309 25 353 0 49 -2 52 -25 52 -15 0 -25
-6 -25 -14 0 -30 -20 -26 -34 8 -13 32 -12 40 20 132 18 55 38 107 44 116 5
10 11 26 11 35 1 10 5 -31 10 -92 4 -60 12 -146 17 -190z m641 -15 c-6 -41
-13 -112 -16 -158 -3 -45 -9 -85 -14 -88 -11 -7 -11 23 0 106 5 36 13 108 16
160 7 90 7 94 -11 80 -16 -13 -17 -13 -10 0 4 8 0 6 -8 -4 -14 -17 -18 -14
-15 10 0 4 -4 10 -10 13 -7 5 1 39 26 102 l38 94 7 -120 c5 -72 3 -150 -3
-195z m8260 243 c-12 -110 -10 -258 6 -379 10 -75 12 -130 7 -144 -7 -19 -10
-12 -16 41 -3 35 -15 101 -26 147 -28 115 -40 234 -29 282 9 38 47 110 60 110
3 0 2 -26 -2 -57z m511 2 c-14 -80 -11 -331 5 -440 16 -106 19 -183 8 -172 -3
4 -24 91 -45 194 -47 225 -54 350 -24 398 22 33 58 76 62 72 1 -1 -2 -24 -6
-52z m-10964 -210 c-5 -155 -9 -190 -30 -255 -13 -41 -28 -93 -32 -115 -6 -31
-8 -35 -14 -19 -4 10 0 69 9 129 11 73 16 177 16 308 l0 198 28 -33 28 -33 -5
-180z m362 205 c19 -29 20 -35 8 -49 -7 -9 -12 -20 -11 -26 2 -5 6 -22 9 -37
4 -19 11 -26 21 -22 9 4 15 0 15 -10 0 -22 20 -20 21 2 0 9 7 -1 15 -23 22
-57 12 -138 -39 -343 -37 -145 -45 -168 -54 -149 -7 15 -8 68 -2 157 10 149 4
408 -10 455 -20 67 -22 87 -9 83 7 -3 23 -20 36 -38z m887 -6 c48 -64 58 -109
52 -239 -4 -92 -13 -139 -56 -290 -28 -99 -51 -192 -51 -207 0 -38 -16 -35
-24 4 -6 28 7 142 34 314 12 72 12 348 1 417 -4 26 -4 47 0 47 5 0 24 -21 44
-46z m9537 -63 c20 -56 24 -80 17 -98 -8 -22 -10 -23 -25 -9 -9 9 -20 14 -25
10 -11 -6 -5 -149 10 -244 16 -106 22 -205 11 -194 -6 6 -13 48 -15 95 -3 46
-7 98 -10 114 -19 114 -24 205 -18 313 7 138 9 139 55 13z m621 47 c-3 -6 -1
-8 5 -4 6 4 22 -29 42 -86 17 -51 34 -99 37 -107 4 -9 1 -11 -7 -6 -8 5 -11 4
-6 -3 3 -6 1 -22 -5 -35 -11 -24 -12 -24 -30 -6 -10 10 -23 19 -29 19 -23 0
-22 -120 5 -415 4 -42 -6 -86 -17 -79 -5 3 -8 29 -8 57 1 29 -1 79 -4 112 -21
205 -23 263 -10 360 7 55 14 134 14 175 1 57 3 69 11 52 5 -13 6 -29 2 -34z
m316 -15 c-17 -103 -10 -333 16 -518 14 -99 27 -186 30 -192 2 -7 0 -13 -5
-13 -6 0 -10 -9 -10 -20 0 -11 -5 -20 -11 -20 -6 0 -9 6 -6 13 2 6 -11 68 -30
137 -76 279 -83 313 -83 405 0 50 4 105 10 124 11 39 80 142 90 136 4 -2 3
-26 -1 -52z m885 20 c-3 -16 -10 -41 -14 -58 -14 -53 -20 -305 -10 -455 7
-112 6 -148 -3 -157 -20 -21 -101 308 -101 412 0 45 5 89 11 100 12 20 12 20
13 -2 0 -20 1 -20 28 5 38 36 43 54 26 87 -13 26 -12 30 11 61 31 41 48 44 39
7z m376 8 c-18 -34 -12 -317 10 -465 26 -180 16 -200 -26 -50 -33 117 -40 176
-45 395 -2 59 1 71 26 103 29 38 53 49 35 17z m-11861 -78 c2 -2 -1 -9 -8 -17
-8 -10 -9 -21 0 -42 19 -50 19 -93 -1 -112 -10 -9 -19 -26 -21 -36 -6 -31 -27
-29 -34 3 -4 20 -13 31 -28 33 -17 2 -23 11 -25 36 -2 18 -8 30 -13 26 -25
-15 7 48 44 88 42 46 42 46 86 21z m10769 -45 c7 -7 12 -20 12 -30 0 -12 5
-15 16 -11 13 5 15 -3 12 -48 -2 -41 -7 -54 -19 -54 -20 0 -49 -29 -49 -49 0
-25 -18 -28 -26 -4 -4 13 -11 26 -17 29 -16 11 -21 103 -7 143 9 30 16 36 39
36 15 0 32 -5 39 -12z m-11213 -659 c0 -8 -4 -54 -9 -102 -10 -104 -5 -114 87
-157 32 -16 52 -30 45 -32 -14 -5 -119 47 -129 64 -7 12 -18 -101 -20 -202
l-1 -75 -15 45 c-11 32 -17 101 -20 241 -5 192 -4 198 17 219 23 23 45 22 45
-1z m-804 -6 c-5 -10 -19 -67 -31 -128 -12 -60 -30 -144 -40 -185 -10 -41 -21
-97 -25 -125 -4 -27 -11 -55 -17 -62 -14 -18 33 -85 90 -127 77 -56 81 -90 9
-80 -23 3 -66 12 -95 20 -43 12 -52 18 -52 37 0 12 -7 35 -15 51 -21 40 -19
48 18 72 32 21 34 27 51 125 28 161 77 372 92 397 17 26 29 30 15 5z m12431
-38 c22 -29 2 -451 -22 -478 -4 -4 -10 51 -13 124 -4 72 -9 134 -12 137 -2 3
-23 -7 -45 -22 -22 -14 -44 -26 -49 -26 -5 0 -11 -5 -13 -12 -5 -14 -38 -3
-38 12 0 6 4 9 10 5 12 -8 100 37 124 64 18 19 18 28 9 118 -13 116 -9 131 21
106 11 -10 24 -22 28 -28z m823 -245 c26 -129 50 -241 54 -249 4 -8 21 -22 39
-31 l31 -17 -19 -39 c-11 -21 -20 -46 -20 -56 0 -26 -39 -42 -157 -62 -64 -12
-51 32 26 88 77 54 85 77 66 184 -8 48 -20 103 -25 122 -6 19 -13 49 -15 67
-3 18 -14 73 -25 122 -22 101 -25 130 -11 116 6 -6 31 -116 56 -245z m-1715
208 c11 -13 23 -33 27 -46 9 -38 -3 -465 -15 -492 -13 -31 -17 57 -14 335 3
187 2 190 -20 207 -13 10 -18 18 -11 18 7 0 22 -10 33 -22z m-11100 -5 c-8
-15 -40 -185 -57 -303 -5 -35 -4 -35 56 -58 39 -15 62 -30 66 -43 8 -25 0 -35
-17 -22 -7 6 -29 13 -49 17 -21 4 -43 14 -50 23 -12 15 -12 16 4 10 11 -4 16
-3 12 3 -3 6 -12 10 -19 10 -12 0 -36 -111 -36 -165 0 -16 -6 -25 -15 -25 -19
0 -19 4 5 135 11 61 31 177 45 258 13 82 29 155 36 163 16 20 31 17 19 -3z
m1205 -140 c5 -203 -5 -395 -18 -362 -16 39 -22 486 -7 504 7 9 15 14 17 11 3
-2 6 -71 8 -153z m11115 112 c6 -8 23 -81 35 -162 35 -216 66 -385 76 -410 5
-14 5 -33 -2 -49 -5 -15 -7 -29 -4 -32 3 -3 10 9 16 26 11 31 32 42 44 23 3
-5 7 -36 9 -69 4 -70 -13 -92 -73 -96 -20 -2 -47 -6 -60 -11 -16 -5 -21 -4
-17 4 4 6 0 11 -8 11 -9 0 -16 -4 -16 -10 0 -5 -7 -10 -15 -10 -28 0 -15 43
29 95 52 61 85 123 70 133 -5 4 -15 42 -21 85 -6 44 -17 84 -23 90 -10 9 -11
9 -6 0 5 -8 1 -13 -9 -13 -9 0 -14 -4 -11 -9 3 -4 -6 -6 -19 -3 -16 3 -25 0
-25 -8 0 -7 -6 -10 -14 -7 -7 3 -19 0 -25 -6 -15 -15 -24 -3 -17 21 4 12 28
29 62 42 30 12 57 26 60 31 6 11 -44 309 -57 332 -11 21 4 23 21 2z m-8090
-85 c0 -10 5 -31 10 -45 9 -23 13 -25 25 -15 9 8 13 21 9 35 -3 13 -1 26 5 29
6 4 11 4 12 -1 11 -162 2 -237 -29 -231 -11 2 -20 20 -27 55 -5 29 -16 58 -22
65 -13 12 -18 119 -7 131 11 10 24 -3 24 -23z m3870 -76 c0 -47 -4 -66 -14
-70 -8 -3 -17 -24 -21 -47 -4 -23 -9 -50 -11 -59 -8 -28 -31 -9 -43 35 -13 50
-10 182 4 182 6 0 9 -3 8 -7 -5 -14 17 -59 26 -54 5 3 12 23 16 43 15 79 35
66 35 -23z m-7310 58 c0 -4 -9 -48 -20 -98 -12 -49 -27 -125 -36 -169 -8 -44
-19 -93 -24 -110 -5 -16 -14 -66 -20 -110 -6 -44 -15 -99 -21 -121 -14 -52 1
-84 66 -139 112 -96 117 -103 105 -125 -6 -11 -15 -18 -19 -15 -5 2 -41 9 -80
15 -96 14 -147 38 -143 69 2 12 -4 31 -13 41 -23 26 -37 90 -20 90 8 0 20 6
27 13 7 7 21 16 30 20 10 3 20 22 23 44 43 243 123 603 136 603 5 0 9 -4 9 -8z
m10729 -15 c12 -15 69 -257 101 -432 36 -194 43 -219 71 -232 13 -7 23 -17 22
-23 -2 -5 5 -6 15 -3 9 3 14 3 10 -2 -4 -4 -3 -14 3 -21 8 -10 5 -23 -12 -51
-13 -21 -24 -41 -25 -45 -1 -5 -2 -14 -3 -20 -3 -27 -79 -50 -226 -70 -12 -2
-21 4 -23 15 -4 17 27 51 103 112 21 16 49 46 62 67 23 34 24 41 15 85 -6 26
-14 68 -17 93 -12 85 -37 190 -46 190 -5 0 -30 -20 -54 -45 -25 -24 -45 -39
-45 -32 0 18 11 30 58 60 27 17 42 35 42 48 0 33 -61 293 -72 307 -14 17 6 16
21 -1z m-7621 -109 c11 -29 23 -68 27 -85 3 -18 13 -33 20 -33 20 0 45 28 46
53 1 12 6 -5 10 -38 9 -61 3 -213 -9 -232 -4 -6 -15 -13 -26 -15 -19 -3 -37
33 -51 105 -3 15 -12 27 -21 27 -8 0 -12 4 -9 10 3 6 -1 7 -9 4 -9 -3 -16 -1
-16 5 0 6 -7 11 -15 11 -8 0 -15 -7 -15 -15 0 -14 -11 -19 -37 -16 -6 1 -14
-3 -18 -9 -9 -15 -25 -12 -25 4 0 8 16 20 35 27 19 7 35 19 35 27 0 8 8 21 18
28 13 10 18 31 20 103 2 50 8 91 12 91 5 0 17 -24 28 -52z m4542 -68 c0 -71 3
-92 15 -96 8 -4 15 -15 15 -26 0 -11 5 -16 10 -13 6 4 17 1 25 -5 8 -7 15 -9
15 -5 0 4 7 2 15 -5 8 -7 15 -19 15 -27 0 -11 -7 -13 -32 -7 -18 3 -37 12 -43
19 -8 10 -19 9 -52 -6 -35 -15 -43 -23 -43 -44 0 -14 -6 -43 -12 -65 -14 -43
-40 -54 -56 -22 -12 23 -24 119 -21 162 2 19 3 54 3 78 0 23 4 42 8 42 5 0 8
-6 8 -14 0 -18 27 -46 44 -46 7 0 20 26 29 58 40 143 57 149 57 22z m-8536
-277 c9 -20 37 -60 62 -88 43 -51 55 -87 33 -100 -6 -4 -13 2 -16 14 -4 17 -8
19 -19 10 -16 -14 -96 -7 -136 11 -23 11 -25 16 -21 64 5 72 8 85 21 98 9 9
13 6 20 -12 8 -23 9 -23 15 8 8 42 19 40 41 -5z m3457 -213 c3 -164 2 -182 -9
-228 -18 -82 -58 -79 -48 3 3 24 -1 50 -9 65 -8 14 -14 37 -15 51 0 15 -7 29
-15 33 -11 4 -15 21 -15 65 0 33 4 62 10 66 5 3 19 -13 30 -35 11 -22 25 -38
30 -35 6 4 10 30 10 60 0 29 3 61 6 70 14 35 23 -11 25 -115z m766 113 c6 -16
-46 -73 -67 -73 -16 0 -94 -75 -116 -111 -12 -21 -71 -41 -80 -28 -11 18 6 58
30 71 29 16 78 73 100 116 18 36 49 43 65 15 9 -16 12 -15 10 4 -1 9 32 22 45
19 6 -1 11 -7 13 -13z m4096 -41 c15 -14 17 -13 17 1 0 32 48 21 66 -15 9 -18
22 -38 30 -45 7 -7 21 -23 31 -35 10 -13 30 -31 46 -41 19 -13 27 -26 27 -47
0 -28 -2 -30 -27 -24 -27 6 -39 17 -124 112 -21 23 -42 42 -46 41 -25 -4 -41
4 -56 31 -29 49 -9 61 36 22z m741 2 c3 -9 6 -35 6 -59 0 -55 13 -64 36 -25
28 47 44 38 44 -24 0 -35 -5 -58 -15 -66 -8 -7 -15 -21 -15 -32 0 -10 -7 -35
-15 -54 -11 -26 -12 -46 -6 -75 8 -33 6 -41 -9 -49 -23 -12 -30 -3 -43 54 -11
50 -12 68 -9 224 2 112 10 147 26 106z"/>
<path d="M1300 3094 c0 -9 -5 -34 -12 -55 -8 -28 -17 -39 -31 -39 -13 0 -17
-5 -13 -15 4 -12 -3 -15 -37 -15 -23 0 -53 -3 -67 -5 -14 -3 -19 -3 -12 1 13
6 16 36 5 48 -4 4 -6 24 -5 44 2 32 1 35 -9 18 -7 -11 -12 -36 -12 -55 l1 -36
-11 33 c-14 44 -30 41 -21 -5 4 -21 8 -47 9 -58 2 -30 16 -56 26 -49 5 3 9 -3
10 -13 0 -16 1 -15 9 3 14 35 53 54 90 44 33 -10 80 2 80 20 0 5 -4 10 -9 10
-6 0 -6 13 1 33 21 67 26 97 17 103 -5 3 -9 -2 -9 -12z"/>
</g>
</svg>
