<?xml version="1.0" standalone="no"?>
<!DOCTYPE svg PUBLIC "-//W3C//DTD SVG 20010904//EN"
 "http://www.w3.org/TR/2001/REC-SVG-20010904/DTD/svg10.dtd">
<svg version="1.0" xmlns="http://www.w3.org/2000/svg"
 width="225.000000pt" height="225.000000pt" viewBox="0 0 225.000000 225.000000"
 preserveAspectRatio="xMidYMid meet">
<metadata>
Created by potrace 1.15, written by Peter Selinger 2001-2017
</metadata>
<g transform="translate(0.000000,225.000000) scale(0.100000,-0.100000)"
fill="#000000" stroke="none">
<path d="M0 1125 l0 -1125 1125 0 1125 0 0 1125 0 1125 -1125 0 -1125 0 0
-1125z m1265 969 c63 -8 175 -40 235 -69 30 -14 46 -23 35 -21 -11 2 -33 7
-48 10 -20 5 -27 3 -22 -5 6 -8 -2 -9 -26 -4 -19 4 -37 13 -41 19 -5 8 -12 8
-26 -1 -11 -6 -57 -14 -103 -18 -86 -7 -199 -29 -234 -47 -37 -19 -75 -68 -75
-98 0 -20 -6 -31 -20 -35 -11 -3 -20 -15 -20 -26 0 -13 -7 -19 -22 -20 -17 -1
-14 -3 11 -11 l34 -9 -29 -15 c-16 -8 -30 -17 -32 -19 -2 -2 34 -2 80 0 l83 4
-65 -13 c-36 -8 -58 -14 -50 -15 9 -2 5 -6 -9 -12 -16 -6 -28 -6 -35 1 -5 5
-15 10 -21 10 -5 0 -3 -4 5 -10 11 -7 9 -11 -13 -19 -16 -6 -37 -11 -47 -11
-10 0 -22 -5 -26 -12 -5 -7 -2 -9 8 -5 19 7 18 -14 -1 -37 -12 -14 -11 -16 7
-16 12 0 23 4 27 9 3 5 19 12 35 16 17 4 30 11 30 16 0 6 -9 5 -21 -1 -11 -7
-23 -10 -25 -7 -2 2 13 12 35 21 30 14 43 16 57 7 17 -10 18 -10 2 -11 -18 0
-25 -5 -87 -61 -19 -17 -50 -38 -69 -46 -19 -8 -46 -25 -60 -39 -28 -26 -42
-30 -42 -14 0 6 5 10 10 10 6 0 10 5 10 10 0 17 -63 -20 -92 -54 -16 -17 -28
-38 -28 -46 0 -13 -1 -13 -11 0 -9 12 -10 11 -6 -8 3 -12 2 -20 -3 -17 -4 3
-11 -5 -15 -18 -6 -19 -8 -19 -12 -4 -2 9 -8 17 -12 17 -11 0 -31 -71 -24 -83
3 -6 1 -7 -5 -3 -7 4 -12 20 -12 36 0 22 -4 28 -15 24 -11 -5 -15 -23 -15 -72
0 -36 -2 -63 -5 -61 -2 3 -11 30 -19 60 l-15 54 -2 -60 c-1 -33 -3 -52 -6 -43
-7 27 -23 22 -23 -7 0 -31 -17 -33 -23 -2 -2 12 -5 -2 -6 -30 -1 -54 -20 -75
-22 -25 l-2 27 -4 -29 c-4 -22 -7 -26 -14 -15 -8 12 -10 12 -18 0 -13 -20 -25
-173 -16 -200 9 -28 -3 -27 -16 2 -8 18 -9 16 -5 -15 3 -23 0 -38 -7 -41 -9
-3 -9 -10 1 -28 11 -21 44 -210 38 -216 -1 -2 -19 25 -39 60 -116 194 -140
494 -61 742 47 145 168 351 250 426 91 82 240 159 380 194 160 41 288 49 449
29z"/>
</g>
</svg>
