<?xml version="1.0" encoding="iso-8859-1"?>
<!-- Generator: Adobe Illustrator 18.0.0, SVG Export Plug-In . SVG Version: 6.00 Build 0)  -->
<!DOCTYPE svg PUBLIC "-//W3C//DTD SVG 1.1//EN" "http://www.w3.org/Graphics/SVG/1.1/DTD/svg11.dtd">
<svg xmlns="http://www.w3.org/2000/svg" xmlns:xlink="http://www.w3.org/1999/xlink" version="1.1" id="Capa_1" x="0px" y="0px" viewBox="0 0 297 297" style="enable-background:new 0 0 297 297;" xml:space="preserve" width="512px" height="512px">
<g>
	<path d="M296.519,114.328c-1.141-3.511-4.15-6.088-7.795-6.674l-89.94-14.441l-41.529-81.074c-1.684-3.286-5.063-5.352-8.754-5.352   c-3.691,0-7.072,2.066-8.756,5.352L98.218,93.213L8.278,107.655c-3.646,0.586-6.654,3.163-7.797,6.674   c-1.141,3.51-0.219,7.363,2.385,9.979l64.273,64.549l-14.055,90.002c-0.57,3.647,0.949,7.306,3.935,9.476   c2.986,2.17,6.938,2.484,10.229,0.816l81.252-41.181l81.252,41.181c1.404,0.711,2.928,1.063,4.447,1.063   c2.039,0,4.068-0.635,5.781-1.879c2.986-2.17,4.506-5.828,3.938-9.476l-14.057-90.001l64.271-64.55   C296.739,121.692,297.659,117.838,296.519,114.328z" fill="#FFDA44"/>
</g>
<g>
</g>
<g>
</g>
<g>
</g>
<g>
</g>
<g>
</g>
<g>
</g>
<g>
</g>
<g>
</g>
<g>
</g>
<g>
</g>
<g>
</g>
<g>
</g>
<g>
</g>
<g>
</g>
<g>
</g>
</svg>
