<?xml version="1.0" standalone="no"?>
<!DOCTYPE svg PUBLIC "-//W3C//DTD SVG 20010904//EN"
 "http://www.w3.org/TR/2001/REC-SVG-20010904/DTD/svg10.dtd">
<svg version="1.0" xmlns="http://www.w3.org/2000/svg"
 width="1920.000000pt" height="1080.000000pt" viewBox="0 0 1920.000000 1080.000000"
 preserveAspectRatio="xMidYMid meet">
<metadata>
Created by potrace 1.15, written by Peter Selinger 2001-2017
</metadata>
<g transform="translate(0.000000,1080.000000) scale(0.100000,-0.100000)"
fill="#000000" stroke="none">
<path d="M0 5400 l0 -5400 9600 0 9600 0 0 5400 0 5400 -9600 0 -9600 0 0
-5400z m15091 2196 c47 -13 99 -31 116 -39 40 -21 102 -96 147 -178 20 -36 45
-74 56 -84 11 -10 20 -24 20 -30 0 -7 13 -44 29 -83 34 -82 34 -129 2 -173
-13 -18 -21 -41 -19 -57 2 -23 8 -28 37 -30 19 -2 37 2 42 9 14 24 20 98 9
119 -6 12 -9 29 -5 38 4 12 15 7 51 -29 55 -54 69 -79 78 -144 17 -118 16
-117 140 -168 61 -26 138 -55 170 -66 142 -49 295 -162 336 -248 44 -94 80
-231 105 -403 21 -142 24 -182 15 -218 -8 -32 -7 -70 4 -155 20 -151 34 -291
29 -297 -2 -2 -14 2 -26 9 -34 22 -145 26 -197 8 -115 -40 -176 -81 -194 -131
-7 -21 5 -20 119 12 39 11 92 24 118 27 46 7 49 6 86 -33 21 -22 43 -57 48
-78 6 -22 19 -60 29 -85 l17 -47 -62 -78 c-35 -43 -68 -88 -74 -101 -5 -13
-16 -23 -22 -23 -7 0 -34 -26 -60 -57 -66 -82 -155 -173 -167 -173 -6 0 -42
-29 -79 -65 -60 -56 -102 -89 -168 -130 -9 -5 -20 -16 -24 -22 -4 -7 -19 -13
-32 -13 -20 0 -25 -5 -25 -25 0 -14 2 -25 5 -25 3 0 29 19 58 43 29 23 68 49
87 57 19 8 76 56 126 107 50 51 99 93 108 93 17 0 40 -45 30 -61 -3 -5 0 -9 7
-9 8 0 8 -4 -1 -15 -7 -8 -22 -15 -35 -15 -31 0 -38 -11 -18 -32 9 -10 30 -18
49 -18 38 0 60 -25 70 -81 4 -18 11 -40 17 -47 7 -9 7 -16 0 -23 -11 -11 -14
-9 -52 41 -31 41 -35 16 -5 -32 53 -82 94 -167 94 -192 0 -22 -5 -26 -29 -26
-29 0 -121 -53 -121 -70 0 -4 -21 -34 -47 -67 -64 -78 -60 -73 -87 -114 -49
-74 -78 -131 -86 -162 -5 -18 -28 -79 -53 -137 -63 -148 -70 -170 -70 -210 0
-39 -18 -63 -45 -58 -21 4 -23 21 -27 258 -1 102 -6 251 -10 331 -7 126 -6
153 9 188 18 47 21 126 5 137 -6 3 -9 17 -6 30 9 47 -12 33 -49 -33 -20 -38
-41 -88 -46 -113 -13 -70 -14 -73 -22 -107 -12 -51 -55 -74 -189 -100 -16 -3
-38 -1 -50 4 -12 6 -39 18 -60 27 -43 18 -67 62 -67 121 0 35 13 47 23 21 3
-8 25 -17 49 -21 23 -4 52 -13 63 -20 14 -8 43 -10 92 -6 58 5 77 11 95 30 13
13 18 25 12 27 -6 3 -53 32 -105 66 -52 34 -116 73 -144 86 -78 37 -164 95
-165 111 0 17 14 65 41 135 21 55 20 61 -18 69 -17 3 -41 22 -61 49 -30 39
-31 43 -14 49 18 7 19 12 7 76 -13 71 -32 130 -47 150 -5 6 -5 13 -1 16 21 12
106 17 140 8 54 -15 117 7 121 42 3 24 7 26 86 32 l83 7 44 -41 c24 -23 63
-51 87 -62 37 -18 47 -20 67 -9 33 18 87 87 83 107 -2 11 -26 26 -63 39 -33
12 -78 28 -100 37 -22 8 -60 20 -85 27 -25 7 -55 16 -68 21 -47 18 -210 34
-234 22 -13 -6 -54 -24 -92 -39 -62 -26 -70 -27 -94 -13 -38 21 -64 72 -78
155 -9 52 -10 83 -3 110 6 20 7 48 3 63 -4 14 -8 38 -8 53 -1 32 -86 125 -122
134 -18 5 -54 51 -54 71 0 8 48 1 85 -12 71 -25 103 -20 155 28 70 64 160 142
204 176 33 26 45 30 73 25 31 -6 38 -2 83 44 59 61 102 142 125 237 17 70 56
142 108 202 20 23 31 49 37 90 10 64 42 179 59 211 12 23 15 82 4 82 -20 -1
-44 -32 -82 -108 -23 -46 -64 -118 -92 -160 -27 -42 -52 -88 -55 -102 -3 -14
-10 -35 -15 -48 -5 -13 -9 -30 -9 -38 0 -44 -41 -102 -97 -137 -66 -42 -79
-45 -88 -18 -3 10 -19 24 -35 31 -16 7 -35 18 -41 26 -18 22 -64 17 -97 -11
-19 -15 -37 -23 -52 -20 -42 8 -90 26 -90 34 0 9 -93 41 -119 41 -9 0 -29 -11
-45 -25 -35 -30 -65 -32 -100 -4 -23 18 -31 19 -58 10 -17 -6 -36 -18 -43 -28
-11 -15 -16 -15 -46 -3 -26 11 -34 11 -37 1 -2 -7 -14 -23 -26 -36 -11 -14
-32 -40 -46 -60 -14 -20 -35 -48 -48 -63 -13 -15 -26 -40 -29 -55 -7 -35 -86
-117 -111 -117 -11 0 -45 11 -77 25 -32 14 -60 24 -62 21 -3 -3 17 -18 43 -35
27 -16 68 -50 92 -75 43 -47 61 -56 63 -33 0 6 28 36 61 66 71 62 82 57 72
-32 -7 -57 -29 -89 -104 -150 -42 -34 -157 -98 -220 -123 -25 -10 -72 -35
-105 -55 -69 -45 -72 -43 -117 45 -41 81 -125 189 -166 212 l-33 19 76 55
c149 107 165 121 171 148 28 113 143 284 298 442 68 69 137 140 155 159 l32
33 34 -68 c46 -94 66 -106 179 -111 202 -7 506 -8 506 -1 0 4 -14 8 -30 8 -17
0 -38 4 -48 9 -65 35 -278 65 -315 45 -9 -5 -35 -8 -56 -6 l-40 4 19 39 c11
21 20 48 20 60 0 11 9 34 21 50 17 25 27 29 67 29 36 0 61 -9 113 -40 86 -51
111 -56 187 -36 34 8 68 13 76 10 9 -3 29 1 46 10 22 10 38 12 55 6 20 -8 29
-3 59 30 44 49 51 75 32 121 -34 81 -70 76 -87 -11 -6 -33 -16 -63 -20 -66 -5
-3 -9 -17 -9 -31 0 -19 -4 -24 -16 -19 -9 3 -34 6 -56 6 -35 0 -39 3 -36 22 2
12 15 29 30 37 30 18 66 62 88 106 8 17 30 49 48 73 17 24 32 54 32 67 0 13
10 29 24 38 29 20 39 67 27 131 -10 52 -30 75 -44 50 -11 -20 -27 -8 -27 22 0
31 -10 30 -41 -2 -21 -23 -24 -35 -24 -106 l0 -80 -40 -34 c-48 -40 -132 -84
-183 -95 -20 -4 -55 -12 -77 -18 -62 -16 -362 -14 -411 4 -58 20 -113 54 -127
79 -17 31 -37 122 -44 198 -15 194 93 376 278 467 133 66 306 80 460 37z
m-1414 -1918 c45 -32 93 -128 99 -203 l5 -59 -48 -48 c-26 -26 -51 -48 -56
-48 -8 0 -69 -45 -110 -81 -10 -9 -38 -24 -62 -33 -45 -18 -55 -34 -55 -94 0
-32 -4 -35 -77 -68 l-78 -36 -65 31 c-36 16 -83 35 -105 42 -22 6 -50 15 -62
20 -12 4 -53 5 -92 2 -39 -3 -71 -3 -71 0 0 4 24 24 53 45 28 22 66 52 83 68
18 17 49 43 70 59 22 16 70 62 107 102 72 76 311 279 362 306 41 22 63 21 102
-5z m1363 -1091 c0 -13 -14 -30 -55 -65 -11 -9 -25 -24 -32 -32 -10 -13 -6
-15 29 -12 35 4 43 0 68 -29 16 -19 29 -37 30 -41 0 -15 -72 -8 -101 9 -34 20
-39 17 -46 -36 -4 -29 -10 -41 -22 -41 -9 0 -36 -7 -61 -16 -24 -8 -53 -13
-63 -10 -11 2 -30 0 -44 -5 -21 -8 -24 -6 -19 8 3 10 8 30 12 45 8 35 55 77
132 118 32 17 79 51 103 76 43 44 69 56 69 31z m-1326 -318 c5 -4 13 -52 18
-106 7 -78 5 -121 -9 -210 -10 -62 -21 -113 -25 -113 -13 0 -9 58 4 80 10 16
10 26 -1 52 -8 18 -17 80 -21 138 -5 58 -13 118 -19 133 -6 16 -8 33 -5 38 6
10 42 3 58 -12z m1236 -58 c0 -10 7 -24 15 -31 12 -10 17 -7 26 14 13 29 54
44 77 30 25 -16 53 -105 45 -144 -4 -19 -8 -42 -9 -50 -1 -12 -17 -83 -39
-182 -8 -35 -27 -58 -73 -89 -26 -17 -75 -59 -109 -92 -61 -59 -65 -61 -130
-68 -84 -10 -427 -11 -436 -3 -6 7 3 20 88 123 69 84 75 91 75 97 0 4 23 31
51 62 28 31 58 67 67 81 47 75 186 220 212 221 8 1 35 12 60 25 57 29 80 31
80 6z m1461 -279 c8 -84 -2 -197 -26 -297 -9 -38 -20 -113 -24 -165 -3 -52
-10 -101 -14 -108 -5 -6 -13 -51 -18 -100 -6 -48 -12 -100 -15 -117 -2 -16 -7
-74 -10 -127 -4 -54 -9 -98 -12 -98 -2 0 -37 30 -76 68 -94 89 -219 156 -291
156 -70 -1 -224 -60 -246 -96 -7 -10 -9 -9 -9 4 0 30 12 48 41 63 37 20 82 88
97 150 7 27 19 57 26 65 16 20 35 83 65 220 12 54 35 92 79 128 23 17 44 32
48 32 4 0 17 10 29 23 12 12 39 33 59 47 21 14 43 30 49 35 11 9 44 28 102 59
34 19 85 69 85 85 0 19 31 52 44 48 6 -2 14 -36 17 -75z m-1812 -537 c14 -8
-8 -52 -44 -85 -41 -38 -79 -118 -64 -136 9 -12 6 -14 -19 -14 -16 0 -35 7
-42 15 -7 8 -19 15 -27 15 -12 0 -71 29 -163 81 -15 8 -35 23 -45 32 -9 9 -21
17 -26 17 -22 0 -6 30 19 36 15 3 47 12 72 19 25 8 56 15 70 17 57 7 260 9
269 3z m1597 -617 c16 -12 52 -43 80 -70 48 -46 54 -49 88 -43 20 4 52 18 72
31 19 13 37 24 39 24 14 0 2 -54 -15 -72 -16 -17 -22 -19 -35 -8 -14 12 -45
10 -106 -5 -17 -5 -31 -2 -42 9 -8 9 -19 16 -24 16 -4 0 -28 19 -52 42 -47 45
-42 44 -186 39 -105 -3 -105 -3 -105 14 0 15 14 18 130 34 105 14 125 12 156
-11z m-1937 -208 c-17 -27 -28 -54 -25 -59 3 -5 -1 -25 -9 -45 -12 -28 -21
-36 -40 -36 -18 0 -25 -5 -25 -20 0 -21 -10 -24 -46 -14 -19 5 -20 10 -13 67
14 117 38 144 114 133 33 -5 44 -3 48 9 4 8 11 15 17 15 5 0 -4 -22 -21 -50z
m2265 -47 c10 -38 22 -86 28 -108 7 -26 8 -151 4 -364 l-6 -323 31 -52 c17
-28 39 -60 49 -71 20 -22 50 -126 50 -173 0 -29 -3 -31 -47 -37 -70 -9 -72
-11 -33 -28 55 -24 89 -106 68 -165 -9 -25 -9 -37 -1 -51 12 -19 8 -45 -21
-136 -8 -27 -20 -69 -26 -92 -17 -67 -114 -173 -191 -208 -54 -24 -75 -28
-168 -29 -119 -1 -184 18 -195 58 -9 35 -6 98 7 142 11 40 128 194 146 194 5
0 25 24 45 53 48 70 65 156 59 313 -2 66 -8 130 -13 144 -5 14 -11 59 -14 100
-11 126 -49 253 -82 273 -10 5 -10 14 -3 36 7 21 7 36 0 50 -6 11 -11 30 -11
42 0 24 -26 59 -44 59 -13 0 -46 95 -46 132 0 14 7 28 15 32 8 3 15 16 15 29
0 35 18 45 94 53 40 4 73 13 79 21 7 8 21 25 32 37 16 18 19 27 10 40 -8 14
-3 24 27 52 21 18 42 34 48 34 19 0 10 -28 -15 -44 -30 -20 -32 -36 -5 -36 11
0 26 12 35 29 16 32 42 61 54 61 4 0 15 -30 25 -67z"/>
<path d="M15774 5745 c-6 -16 -4 -29 16 -100 6 -22 19 -76 29 -120 9 -44 21
-87 26 -97 24 -41 109 -128 126 -128 31 0 33 38 6 99 -50 114 -68 226 -43 274
14 25 14 27 -2 25 -10 -2 -17 5 -19 17 -1 11 0 14 3 8 3 -7 10 -13 15 -13 6 0
8 4 4 9 -3 5 5 12 17 14 17 3 15 5 -7 4 -16 0 -43 5 -58 12 -42 16 -106 14
-113 -4z"/>
</g>
</svg>
